<?xml version="1.0" encoding="UTF-8" standalone="no"?>
<!-- Created with Inkscape (http://www.inkscape.org/) -->

<svg
   version="1.1"
   id="svg1"
   width="79.237061"
   height="77.923462"
   viewBox="0 0 79.237061 77.923465"
   xmlns="http://www.w3.org/2000/svg"
   xmlns:svg="http://www.w3.org/2000/svg">
  <defs
     id="defs1">
    <clipPath
       clipPathUnits="userSpaceOnUse"
       id="clipPath526">
      <path
         d="M 0,41.043 V 0.12237 H 40.921 V 41.043"
         transform="translate(-1.7214581e-6)"
         clip-rule="evenodd"
         id="path526" />
    </clipPath>
    <clipPath
       clipPathUnits="userSpaceOnUse"
       id="clipPath527">
      <path
         d="M 0,0 H 41.04 V 41.043 H 0 Z"
         transform="matrix(1.936343,0,0,-1.9362326,578.86667,747.73333)"
         id="path527" />
    </clipPath>
    <clipPath
       clipPathUnits="userSpaceOnUse"
       id="clipPath528">
      <path
         d="M 0,41.043 V 0.12237 H 40.921 V 41.043"
         transform="translate(-1.7214581e-6)"
         clip-rule="evenodd"
         id="path528" />
    </clipPath>
    <clipPath
       clipPathUnits="userSpaceOnUse"
       id="clipPath529">
      <path
         d="M 0,0 H 41.04 V 41.043 H 0 Z"
         transform="matrix(1.936343,0,0,-1.9362326,578.86667,747.73333)"
         id="path529" />
    </clipPath>
    <clipPath
       clipPathUnits="userSpaceOnUse"
       id="clipPath530">
      <path
         d="M 0,41.043 V 0.12237 H 40.921 V 41.043"
         transform="translate(-1.7214581e-6)"
         clip-rule="evenodd"
         id="path530" />
    </clipPath>
    <clipPath
       clipPathUnits="userSpaceOnUse"
       id="clipPath531">
      <path
         d="M 0,0 H 41.04 V 41.043 H 0 Z"
         transform="matrix(1.936343,0,0,-1.9362326,578.86667,747.73333)"
         id="path531" />
    </clipPath>
    <clipPath
       clipPathUnits="userSpaceOnUse"
       id="clipPath532">
      <path
         d="M 0,41.043 V 0.12237 H 40.921 V 41.043"
         transform="translate(-1.7214581e-6)"
         clip-rule="evenodd"
         id="path532" />
    </clipPath>
    <clipPath
       clipPathUnits="userSpaceOnUse"
       id="clipPath533">
      <path
         d="M 0,0 H 41.04 V 41.043 H 0 Z"
         transform="matrix(1.936343,0,0,-1.9362326,578.86667,747.73333)"
         id="path533" />
    </clipPath>
    <clipPath
       clipPathUnits="userSpaceOnUse"
       id="clipPath534">
      <path
         d="M 0,41.043 V 0.12237 H 40.921 V 41.043"
         transform="translate(-1.7214581e-6)"
         clip-rule="evenodd"
         id="path534" />
    </clipPath>
    <clipPath
       clipPathUnits="userSpaceOnUse"
       id="clipPath535">
      <path
         d="M 0,0 H 41.04 V 41.043 H 0 Z"
         transform="matrix(1.936343,0,0,-1.9362326,578.86667,747.73333)"
         id="path535" />
    </clipPath>
    <clipPath
       clipPathUnits="userSpaceOnUse"
       id="clipPath536">
      <path
         d="M 0,41.043 V 0.12237 H 40.921 V 41.043"
         transform="translate(-1.7214581e-6)"
         clip-rule="evenodd"
         id="path536" />
    </clipPath>
    <clipPath
       clipPathUnits="userSpaceOnUse"
       id="clipPath537">
      <path
         d="M 0,0 H 41.04 V 41.043 H 0 Z"
         transform="matrix(1.936343,0,0,-1.9362326,578.86667,747.73333)"
         id="path537" />
    </clipPath>
    <clipPath
       clipPathUnits="userSpaceOnUse"
       id="clipPath538">
      <path
         d="M 0,41.043 V 0.12237 H 40.921 V 41.043"
         transform="translate(-1.7214581e-6)"
         clip-rule="evenodd"
         id="path538" />
    </clipPath>
    <clipPath
       clipPathUnits="userSpaceOnUse"
       id="clipPath539">
      <path
         d="M 0,0 H 41.04 V 41.043 H 0 Z"
         transform="matrix(1.936343,0,0,-1.9362326,578.86667,747.73333)"
         id="path539" />
    </clipPath>
    <clipPath
       clipPathUnits="userSpaceOnUse"
       id="clipPath547">
      <path
         d="M 3.0518e-5,6.1035e-5 H 595.20003 V 841.92006 H 3.0518e-5 Z"
         transform="matrix(1.3333333,0,0,-1.3333333,0,1122.56)"
         clip-rule="evenodd"
         id="path547" />
    </clipPath>
  </defs>
  <g
     id="g1"
     transform="translate(-578.8667,-668.2645)">
    <g
       id="g526">
      <g
         id="g547"
         clip-path="url(#clipPath547)">
        <g
           clip-path="url(#clipPath527)"
           id="g540">
          <path
             d="m 41.071,21.296 v 0 C 41.071,9.9583 31.836,0.79811 20.498,0.79811 9.1602,0.79811 0,9.9583 0,21.296 c 0,11.338 9.1602,20.498 20.498,20.498 11.338,0 20.573,-9.16 20.573,-20.498 z"
             style="fill:#f7de5c;fill-opacity:1;fill-rule:nonzero;stroke:none"
             transform="matrix(1.936343,0,0,-1.9362326,578.86667,747.73333)"
             clip-path="url(#clipPath526)"
             id="path540" />
        </g>
        <g
           clip-path="url(#clipPath529)"
           id="g541">
          <path
             d="m 18.471,21.446 v 0 c 0,3.98 -3.229,7.208 -7.208,7.208 -3.9799,0 -7.2085,-3.228 -7.2085,-7.208 0,-3.979 2.5529,-5.406 6.4575,-6.082 4.43,-0.75 7.959,2.103 7.959,6.082 z m -1.577,-1.502 v 0 c 0,-2.027 -2.328,-4.129 -6.683,-3.378 -3.003,0.45 -4.6548,1.351 -4.6548,3.378 0,0.301 0.0751,0.601 0.1502,0.901 0.3003,-1.126 0.6757,-2.552 4.6556,-2.778 3.679,-0.225 6.006,0.676 6.532,1.877 z"
             style="fill:#fefefe;fill-opacity:1;fill-rule:nonzero;stroke:none"
             transform="matrix(1.936343,0,0,-1.9362326,578.86667,747.73333)"
             clip-path="url(#clipPath528)"
             id="path541" />
        </g>
        <g
           clip-path="url(#clipPath531)"
           id="g542">
          <path
             d="m 34.614,28.129 v 0 c 0,3.904 -3.604,7.808 -7.584,7.808 -3.979,0 -7.133,-4.58 -7.133,-8.559 0,-3.98 3.529,-6.457 7.509,-6.457 3.979,0 7.208,3.228 7.208,7.208 z m -1.577,-0.676 v 0 c 0,0 0,0 0,0 0,-3.079 -2.478,-5.481 -5.631,-5.481 -3.154,0 -6.007,1.727 -6.007,4.73 0,0.451 0.075,0.901 0.15,1.276 0.3,-1.651 1.727,-4.129 5.706,-4.43 3.68,-0.3 5.256,2.103 5.782,3.905 z"
             style="fill:#fefefe;fill-opacity:1;fill-rule:nonzero;stroke:none"
             transform="matrix(1.936343,0,0,-1.9362326,578.86667,747.73333)"
             clip-path="url(#clipPath530)"
             id="path542" />
        </g>
        <g
           clip-path="url(#clipPath533)"
           id="g543">
          <path
             d="m 26.429,19.419 v 0 c -3.378,1.276 -6.382,-0.3 -7.733,-3.754 -1.352,-3.454 0.225,-7.3585 3.604,-8.71 3.304,-1.2764 7.208,1.6518 8.559,5.106 1.352,3.529 -1.126,6.006 -4.43,7.358 z m -1.651,-0.376 v 0 c -6.382,-4.354 -4.58,-8.934 -3.454,-10.6614 -2.103,1.5017 -2.928,4.3544 -1.952,6.9824 0.901,2.253 2.778,4.055 5.406,3.679 z"
             style="fill:#fefefe;fill-opacity:1;fill-rule:nonzero;stroke:none"
             transform="matrix(1.936343,0,0,-1.9362326,578.86667,747.73333)"
             clip-path="url(#clipPath532)"
             id="path543" />
        </g>
        <g
           clip-path="url(#clipPath535)"
           id="g544">
          <path
             d="m 28.081,34.661 v 0 c 0.901,-0.075 1.577,0.075 1.652,0.3 0,0.225 -0.676,0.451 -1.577,0.451 -0.901,0.075 -1.576,0 -1.576,-0.226 -0.075,-0.225 0.675,-0.45 1.501,-0.525 z"
             style="fill:#f7de5c;fill-opacity:1;fill-rule:nonzero;stroke:none"
             transform="matrix(1.936343,0,0,-1.9362326,578.86667,747.73333)"
             clip-path="url(#clipPath534)"
             id="path544" />
        </g>
        <g
           clip-path="url(#clipPath537)"
           id="g545">
          <path
             d="m 11.413,27.453 v 0 c 0.901,0 1.576,0.225 1.576,0.45 0,0.226 -0.675,0.376 -1.576,0.376 -0.901,0 -1.577,-0.15 -1.577,-0.376 0,-0.225 0.676,-0.45 1.577,-0.45 z"
             style="fill:#f7de5c;fill-opacity:1;fill-rule:nonzero;stroke:none"
             transform="matrix(1.936343,0,0,-1.9362326,578.86667,747.73333)"
             clip-path="url(#clipPath536)"
             id="path545" />
        </g>
        <g
           clip-path="url(#clipPath539)"
           id="g546">
          <path
             d="m 28.382,10.033 v 0 C 27.856,9.3577 27.556,8.6819 27.706,8.5317 c 0.225,-0.1501 0.751,0.3004 1.276,0.9761 0.526,0.7512 0.826,1.4262 0.676,1.5772 -0.225,0.075 -0.751,-0.376 -1.276,-1.052 z"
             style="fill:#f7de5c;fill-opacity:1;fill-rule:nonzero;stroke:none"
             transform="matrix(1.936343,0,0,-1.9362326,578.86667,747.73333)"
             clip-path="url(#clipPath538)"
             id="path546" />
        </g>
      </g>
    </g>
  </g>
</svg>
