<?xml version="1.0" encoding="UTF-8" standalone="no"?>
<!-- Created with Inkscape (http://www.inkscape.org/) -->

<svg
   version="1.1"
   id="svg1"
   width="79.469543"
   height="79.465515"
   viewBox="0 0 79.469544 79.465518"
   xmlns="http://www.w3.org/2000/svg"
   xmlns:svg="http://www.w3.org/2000/svg">
  <defs
     id="defs1">
    <clipPath
       clipPathUnits="userSpaceOnUse"
       id="clipPath406">
      <path
         d="M 0,45.345 V -0.61591 H 45.961 V 45.345"
         clip-rule="evenodd"
         id="path406" />
    </clipPath>
    <clipPath
       clipPathUnits="userSpaceOnUse"
       id="clipPath407">
      <path
         d="M 0,0 H 45.333 V 45.345 H 0 Z"
         transform="matrix(1.7530173,0,-3.9800853e-7,-1.7524654,222.4,568.06667)"
         id="path407" />
    </clipPath>
    <clipPath
       clipPathUnits="userSpaceOnUse"
       id="clipPath408">
      <path
         d="M 0,45.345 V -0.61591 H 45.961 V 45.345"
         clip-rule="evenodd"
         id="path408" />
    </clipPath>
    <clipPath
       clipPathUnits="userSpaceOnUse"
       id="clipPath409">
      <path
         d="M 0,0 H 45.333 V 45.345 H 0 Z"
         transform="matrix(1.7530173,0,-3.9800853e-7,-1.7524654,222.4,568.06667)"
         id="path409" />
    </clipPath>
    <clipPath
       clipPathUnits="userSpaceOnUse"
       id="clipPath410">
      <path
         d="M 0,45.345 V -0.61591 H 45.961 V 45.345"
         clip-rule="evenodd"
         id="path410" />
    </clipPath>
    <clipPath
       clipPathUnits="userSpaceOnUse"
       id="clipPath411">
      <path
         d="M 0,0 H 45.333 V 45.345 H 0 Z"
         transform="matrix(1.7530173,0,-3.9800853e-7,-1.7524654,222.4,568.06667)"
         id="path411" />
    </clipPath>
    <clipPath
       clipPathUnits="userSpaceOnUse"
       id="clipPath412">
      <path
         d="M 0,45.345 V -0.61591 H 45.961 V 45.345"
         clip-rule="evenodd"
         id="path412" />
    </clipPath>
    <clipPath
       clipPathUnits="userSpaceOnUse"
       id="clipPath413">
      <path
         d="M 0,0 H 45.333 V 45.345 H 0 Z"
         transform="matrix(1.7530173,0,-3.9800853e-7,-1.7524654,222.4,568.06667)"
         id="path413" />
    </clipPath>
    <clipPath
       clipPathUnits="userSpaceOnUse"
       id="clipPath414">
      <path
         d="M 0,45.345 V -0.61591 H 45.961 V 45.345"
         clip-rule="evenodd"
         id="path414" />
    </clipPath>
    <clipPath
       clipPathUnits="userSpaceOnUse"
       id="clipPath415">
      <path
         d="M 0,0 H 45.333 V 45.345 H 0 Z"
         transform="matrix(1.7530173,0,-3.9800853e-7,-1.7524654,222.4,568.06667)"
         id="path415" />
    </clipPath>
    <clipPath
       clipPathUnits="userSpaceOnUse"
       id="clipPath416">
      <path
         d="M 0,45.345 V -0.61591 H 45.961 V 45.345"
         clip-rule="evenodd"
         id="path416" />
    </clipPath>
    <clipPath
       clipPathUnits="userSpaceOnUse"
       id="clipPath417">
      <path
         d="M 0,0 H 45.333 V 45.345 H 0 Z"
         transform="matrix(1.7530173,0,-3.9800853e-7,-1.7524654,222.4,568.06667)"
         id="path417" />
    </clipPath>
    <clipPath
       clipPathUnits="userSpaceOnUse"
       id="clipPath424">
      <path
         d="M 0,1.2207e-4 H 595.2 V 841.92012 H 0 Z"
         transform="matrix(1.3333333,0,0,-1.3333333,0,1122.56)"
         clip-rule="evenodd"
         id="path424" />
    </clipPath>
  </defs>
  <g
     id="g1"
     transform="translate(-222.39999,-488.60112)">
    <g
       id="g406">
      <g
         id="g424"
         clip-path="url(#clipPath424)">
        <g
           clip-path="url(#clipPath407)"
           id="g418">
          <path
             d="m 22.68,-0.015125 v 0 C 10.138,-0.015125 0,10.198 0,22.74 0,35.357 10.138,45.42 22.68,45.42 35.297,45.42 45.435,35.357 45.435,22.74 45.435,10.198 35.297,-0.015125 22.68,-0.015125 Z"
             style="fill:#7fcb28;fill-opacity:1;fill-rule:nonzero;stroke:none"
             transform="matrix(1.7530173,0,-3.9800853e-7,-1.7524654,222.4,568.06667)"
             clip-path="url(#clipPath406)"
             id="path418" />
        </g>
        <g
           clip-path="url(#clipPath409)"
           id="g419">
          <path
             d="m 29.814,34.005 v 0 c -0.3,-0.676 1.728,-1.052 2.028,-0.15 0.15,0.45 0,1.051 -0.526,1.351 -0.375,0.226 -1.652,0.076 -1.877,0.226 0.451,-0.376 0.601,-0.901 0.375,-1.427 z"
             style="fill:#fefefe;fill-opacity:1;fill-rule:nonzero;stroke:none"
             transform="matrix(1.7530173,0,-3.9800853e-7,-1.7524654,222.4,568.06667)"
             clip-path="url(#clipPath408)"
             id="path419" />
        </g>
        <g
           clip-path="url(#clipPath411)"
           id="g420">
          <path
             d="m 19.15,34.155 v 0 c 0.451,-0.375 1.277,-1.427 2.028,-1.352 0.526,0.075 0.526,1.427 0.601,1.652 0.375,1.803 3.154,-0.075 4.13,-0.375 -0.15,0.451 -0.45,1.126 0.15,1.352 0.751,0.375 1.653,0.45 2.479,0.3 -0.376,0.901 -1.277,2.253 -2.629,1.727 -0.976,-0.45 -1.126,-0.15 -2.027,0.076 -0.151,0.075 -0.226,0.075 -0.301,0.075 -0.45,0 -0.826,-0.301 -1.051,-0.676 -0.225,-0.301 -0.451,-0.676 -0.976,-0.676 -0.301,-0.075 -0.526,0.15 -0.751,0.3 -0.226,0.15 -0.451,0.301 -0.751,0.226 -1.728,-0.226 0.675,-2.253 -0.902,-2.629 z"
             style="fill:#fefefe;fill-opacity:1;fill-rule:nonzero;stroke:none"
             transform="matrix(1.7530173,0,-3.9800853e-7,-1.7524654,222.4,568.06667)"
             clip-path="url(#clipPath410)"
             id="path420" />
        </g>
        <g
           clip-path="url(#clipPath413)"
           id="g421">
          <path
             d="m 15.546,32.278 v 0 c 0.3,-0.451 0.225,-1.202 -0.301,-1.578 0.526,0.151 1.052,0.226 1.577,0.451 0.676,0.376 0.376,1.051 0.526,1.652 0.15,0.376 0.976,1.127 0.526,1.502 -0.226,0.15 -0.601,0.301 -0.977,0.301 -0.15,0 -0.3,0 -0.45,-0.075 -0.826,-0.301 -0.15,-1.277 -1.352,-1.502 -0.376,-0.076 0.375,-0.601 0.451,-0.751 z"
             style="fill:#fefefe;fill-opacity:1;fill-rule:nonzero;stroke:none"
             transform="matrix(1.7530173,0,-3.9800853e-7,-1.7524654,222.4,568.06667)"
             clip-path="url(#clipPath412)"
             id="path421" />
        </g>
        <g
           clip-path="url(#clipPath415)"
           id="g422">
          <path
             d="m 32.143,30.776 v 0 c -2.178,0.225 -0.376,1.351 0,2.328 -0.601,-0.301 -1.502,-0.376 -2.178,-0.151 -0.977,0.301 -0.751,0.902 -0.601,1.578 0.15,0.675 -0.676,0.751 -1.352,0.751 -0.15,0 -0.3,0 -0.375,0 -1.202,-0.076 -1.202,-0.301 -1.127,-1.202 0.15,-0.826 -0.826,-0.376 -1.877,0 -1.052,0.451 -2.178,0.826 -2.404,-0.075 -0.075,-0.451 -0.075,-1.352 -0.675,-1.652 -1.052,-0.526 -2.253,0.976 -2.929,1.427 -0.301,-0.451 -0.526,-0.977 -0.601,-1.578 -0.075,-0.45 0,-0.901 -0.526,-1.276 -0.826,-0.601 -1.952,-0.676 -2.929,-0.976 1.052,-0.526 2.253,-0.827 3.455,-1.127 0.676,-0.15 0.676,-1.051 1.352,-1.126 1.727,-0.151 0.375,-1.277 1.051,-1.427 0.15,-1.202 0.15,-2.929 0.15,-5.483 -0.15,-1.201 -0.3,-2.328 -0.375,-3.454 -0.451,-4.656 -0.526,-7.6603 0.676,-8.6366 0,0 0.075,0 0.075,0 0.3,-0.9763 0.901,-1.6522 1.652,-1.9526 -0.075,-0.1502 2.253,-0.3004 2.178,0 0.45,0.3004 0.901,0.751 1.126,1.3518 0.226,0 0.451,0.2253 0.826,0.5257 1.728,2.2527 0.526,6.2337 0.601,9.7627 0.15,3.53 -0.075,6.984 -0.075,8.712 0.15,0 0.15,-0.075 0.3,-0.15 0.601,-0.151 0.226,-0.151 0.902,0.525 0.976,0.977 -0.151,0.601 0.976,1.502 0.901,0.676 2.178,0.901 2.854,1.803 -0.075,0 -0.075,0 -0.15,0 z M 20.878,17.333 v 0 c 0.15,1.051 0.225,2.253 0.375,3.454 v 0 c 0.075,2.554 0,4.281 -0.15,5.408 v 0 c 0.075,0.225 0.15,0.525 0.075,1.201 0,0.15 -0.15,0.526 -0.375,0.826 -0.076,0.226 -0.151,0.376 -0.151,0.451 0.451,-0.301 1.202,-1.052 1.502,-2.253 0,0 0,0 0,0 l -0.15,-4.431 c 0.075,-0.601 0,-1.202 0,-1.878 -0.45,-3.604 -1.277,-6.458 -1.201,-10.3632 0,-0.0751 0,-0.1502 0,-0.2253 -0.526,1.2765 -0.226,4.2055 0.075,7.8105 z m 3.755,-9.6129 v 0 c -1.277,-1.0514 -2.779,0 -3.004,1.9526 -0.075,0.9013 0,2.7783 0.15,5.0313 0.3,2.103 0.751,5.107 0.676,7.285 v 0.976 l 0.3,3.305 h 0.075 c -0.075,0.225 -0.075,0.6 -0.075,1.276 -0.15,2.028 -2.028,3.305 -2.028,3.305 0,0 1.953,-1.127 1.653,-0.075 -0.301,0.826 1.502,-2.028 2.027,-2.779 0.301,-0.376 0.451,-0.976 0.526,-1.502 0,0 0,0 0.075,0 l 0.075,-2.028 C 25.008,22.214 24.933,19.135 24.933,19.135 25.308,11.7 25.909,8.6964 24.633,7.7201 Z M 26.735,18.61 v 0 c 0.451,-6.008 0.451,-9.0124 -0.3,-9.6883 -0.15,-0.1502 -0.3,-0.3004 -0.376,-0.3004 0.076,0.3755 0.151,0.751 0.076,1.2767 -0.076,1.352 -0.226,3.229 -0.376,5.557 -0.075,1.728 -0.075,3.83 0,5.783 v 0 l -0.3,4.806 c 0,0.226 0,0.451 0,0.676 h -0.075 c 0.075,0.901 0.075,2.479 0,3.079 0,0.826 0.375,1.878 0.375,1.652 0.075,-0.3 0.075,-2.027 0.15,-2.177 0.15,-0.151 0.526,0.075 0.526,-0.526 0,-0.451 0.075,-1.277 0.15,-1.727 0,0 0,0 0,0 0,-1.803 0.15,-8.411 0.15,-8.411 z"
             style="fill:#fefefe;fill-opacity:1;fill-rule:nonzero;stroke:none"
             transform="matrix(1.7530173,0,-3.9800853e-7,-1.7524654,222.4,568.06667)"
             clip-path="url(#clipPath414)"
             id="path422" />
        </g>
        <g
           clip-path="url(#clipPath417)"
           id="g423">
          <path
             d="m 22.455,24.693 v 0 c 0,0 0.751,-7.21 0.976,-10.514 0.15,-1.427 0,-4.056 0,-4.056"
             style="fill:none;stroke:#fefefe;stroke-width:0.4506;stroke-linecap:round;stroke-linejoin:round;stroke-miterlimit:10;stroke-dasharray:none;stroke-opacity:1"
             transform="matrix(1.7530173,0,-3.9800853e-7,-1.7524654,222.4,568.06667)"
             clip-path="url(#clipPath416)"
             id="path423" />
        </g>
      </g>
    </g>
  </g>
</svg>
