<?xml version="1.0" encoding="UTF-8" standalone="no"?>
<!-- Created with Inkscape (http://www.inkscape.org/) -->

<svg
   version="1.1"
   id="svg1"
   width="79.469528"
   height="79.465637"
   viewBox="0 0 79.469529 79.46564"
   xmlns="http://www.w3.org/2000/svg"
   xmlns:svg="http://www.w3.org/2000/svg">
  <defs
     id="defs1">
    <clipPath
       clipPathUnits="userSpaceOnUse"
       id="clipPath330">
      <path
         d="M 0,45.345 V -0.61591 H 45.961 V 45.345"
         transform="translate(-1.9014834e-6)"
         clip-rule="evenodd"
         id="path330" />
    </clipPath>
    <clipPath
       clipPathUnits="userSpaceOnUse"
       id="clipPath331">
      <path
         d="M 0,0 H 45.333 V 45.345 H 0 Z"
         transform="matrix(1.7530173,1.5967709e-6,0,-1.7524654,145.86667,396.93333)"
         id="path331" />
    </clipPath>
    <clipPath
       clipPathUnits="userSpaceOnUse"
       id="clipPath332">
      <path
         d="M 0,45.345 V -0.61591 H 45.961 V 45.345"
         transform="translate(-1.9014834e-6)"
         clip-rule="evenodd"
         id="path332" />
    </clipPath>
    <clipPath
       clipPathUnits="userSpaceOnUse"
       id="clipPath333">
      <path
         d="M 0,0 H 45.333 V 45.345 H 0 Z"
         transform="matrix(1.7530173,1.5967709e-6,0,-1.7524654,145.86667,396.93333)"
         id="path333" />
    </clipPath>
    <clipPath
       clipPathUnits="userSpaceOnUse"
       id="clipPath334">
      <path
         d="M 0,45.345 V -0.61591 H 45.961 V 45.345"
         transform="translate(-1.9014834e-6)"
         clip-rule="evenodd"
         id="path334" />
    </clipPath>
    <clipPath
       clipPathUnits="userSpaceOnUse"
       id="clipPath335">
      <path
         d="M 0,0 H 45.333 V 45.345 H 0 Z"
         transform="matrix(1.7530173,1.5967709e-6,0,-1.7524654,145.86667,396.93333)"
         id="path335" />
    </clipPath>
    <clipPath
       clipPathUnits="userSpaceOnUse"
       id="clipPath336">
      <path
         d="M 0,45.345 V -0.61591 H 45.961 V 45.345"
         transform="translate(-1.9014834e-6)"
         clip-rule="evenodd"
         id="path336" />
    </clipPath>
    <clipPath
       clipPathUnits="userSpaceOnUse"
       id="clipPath337">
      <path
         d="M 0,0 H 45.333 V 45.345 H 0 Z"
         transform="matrix(1.7530173,1.5967709e-6,0,-1.7524654,145.86667,396.93333)"
         id="path337" />
    </clipPath>
    <clipPath
       clipPathUnits="userSpaceOnUse"
       id="clipPath338">
      <path
         d="M 0,45.345 V -0.61591 H 45.961 V 45.345"
         transform="translate(-1.9014834e-6)"
         clip-rule="evenodd"
         id="path338" />
    </clipPath>
    <clipPath
       clipPathUnits="userSpaceOnUse"
       id="clipPath339">
      <path
         d="M 0,0 H 45.333 V 45.345 H 0 Z"
         transform="matrix(1.7530173,1.5967709e-6,0,-1.7524654,145.86667,396.93333)"
         id="path339" />
    </clipPath>
    <clipPath
       clipPathUnits="userSpaceOnUse"
       id="clipPath340">
      <path
         d="M 0,45.345 V -0.61591 H 45.961 V 45.345"
         transform="translate(-1.9014834e-6)"
         clip-rule="evenodd"
         id="path340" />
    </clipPath>
    <clipPath
       clipPathUnits="userSpaceOnUse"
       id="clipPath341">
      <path
         d="M 0,0 H 45.333 V 45.345 H 0 Z"
         transform="matrix(1.7530173,1.5967709e-6,0,-1.7524654,145.86667,396.93333)"
         id="path341" />
    </clipPath>
    <clipPath
       clipPathUnits="userSpaceOnUse"
       id="clipPath342">
      <path
         d="M 0,45.345 V -0.61591 H 45.961 V 45.345"
         transform="translate(-1.9014834e-6)"
         clip-rule="evenodd"
         id="path342" />
    </clipPath>
    <clipPath
       clipPathUnits="userSpaceOnUse"
       id="clipPath343">
      <path
         d="M 0,0 H 45.333 V 45.345 H 0 Z"
         transform="matrix(1.7530173,1.5967709e-6,0,-1.7524654,145.86667,396.93333)"
         id="path343" />
    </clipPath>
    <clipPath
       clipPathUnits="userSpaceOnUse"
       id="clipPath344">
      <path
         d="M 0,45.345 V -0.61591 H 45.961 V 45.345"
         transform="translate(-1.9014834e-6)"
         clip-rule="evenodd"
         id="path344" />
    </clipPath>
    <clipPath
       clipPathUnits="userSpaceOnUse"
       id="clipPath345">
      <path
         d="M 0,0 H 45.333 V 45.345 H 0 Z"
         transform="matrix(1.7530173,1.5967709e-6,0,-1.7524654,145.86667,396.93333)"
         id="path345" />
    </clipPath>
    <clipPath
       clipPathUnits="userSpaceOnUse"
       id="clipPath346">
      <path
         d="M 0,45.345 V -0.61591 H 45.961 V 45.345"
         transform="translate(-1.9014834e-6)"
         clip-rule="evenodd"
         id="path346" />
    </clipPath>
    <clipPath
       clipPathUnits="userSpaceOnUse"
       id="clipPath347">
      <path
         d="M 0,0 H 45.333 V 45.345 H 0 Z"
         transform="matrix(1.7530173,1.5967709e-6,0,-1.7524654,145.86667,396.93333)"
         id="path347" />
    </clipPath>
    <clipPath
       clipPathUnits="userSpaceOnUse"
       id="clipPath348">
      <path
         d="M 0,45.345 V -0.61591 H 45.961 V 45.345"
         transform="translate(-1.9014834e-6)"
         clip-rule="evenodd"
         id="path348" />
    </clipPath>
    <clipPath
       clipPathUnits="userSpaceOnUse"
       id="clipPath349">
      <path
         d="M 0,0 H 45.333 V 45.345 H 0 Z"
         transform="matrix(1.7530173,1.5967709e-6,0,-1.7524654,145.86667,396.93333)"
         id="path349" />
    </clipPath>
    <clipPath
       clipPathUnits="userSpaceOnUse"
       id="clipPath350">
      <path
         d="M 0,45.345 V -0.61591 H 45.961 V 45.345"
         transform="translate(-1.9014834e-6)"
         clip-rule="evenodd"
         id="path350" />
    </clipPath>
    <clipPath
       clipPathUnits="userSpaceOnUse"
       id="clipPath351">
      <path
         d="M 0,0 H 45.333 V 45.345 H 0 Z"
         transform="matrix(1.7530173,1.5967709e-6,0,-1.7524654,145.86667,396.93333)"
         id="path351" />
    </clipPath>
    <clipPath
       clipPathUnits="userSpaceOnUse"
       id="clipPath352">
      <path
         d="M 0,45.345 V -0.61591 H 45.961 V 45.345"
         transform="translate(-1.9014834e-6)"
         clip-rule="evenodd"
         id="path352" />
    </clipPath>
    <clipPath
       clipPathUnits="userSpaceOnUse"
       id="clipPath353">
      <path
         d="M 0,0 H 45.333 V 45.345 H 0 Z"
         transform="matrix(1.7530173,1.5967709e-6,0,-1.7524654,145.86667,396.93333)"
         id="path353" />
    </clipPath>
    <clipPath
       clipPathUnits="userSpaceOnUse"
       id="clipPath354">
      <path
         d="M 0,45.345 V -0.61591 H 45.961 V 45.345"
         transform="translate(-1.9014834e-6)"
         clip-rule="evenodd"
         id="path354" />
    </clipPath>
    <clipPath
       clipPathUnits="userSpaceOnUse"
       id="clipPath355">
      <path
         d="M 0,0 H 45.333 V 45.345 H 0 Z"
         transform="matrix(1.7530173,1.5967709e-6,0,-1.7524654,145.86667,396.93333)"
         id="path355" />
    </clipPath>
    <clipPath
       clipPathUnits="userSpaceOnUse"
       id="clipPath369">
      <path
         d="M 0,2.4414e-4 H 595.2 V 841.92024 H 0 Z"
         transform="matrix(1.3333333,0,0,-1.3333333,0,1122.56)"
         clip-rule="evenodd"
         id="path369" />
    </clipPath>
  </defs>
  <g
     id="g1"
     transform="translate(-145.86667,-317.46779)">
    <g
       id="g330">
      <g
         id="g369"
         clip-path="url(#clipPath369)">
        <g
           clip-path="url(#clipPath331)"
           id="g356">
          <path
             d="m 22.68,-0.015125 v 0 C 10.138,-0.015125 0,10.198 0,22.74 0,35.357 10.138,45.42 22.68,45.42 35.297,45.42 45.435,35.357 45.435,22.74 45.435,10.198 35.297,-0.015125 22.68,-0.015125 Z"
             style="fill:#b78051;fill-opacity:1;fill-rule:nonzero;stroke:none"
             transform="matrix(1.7530173,1.5967709e-6,0,-1.7524654,145.86667,396.93333)"
             clip-path="url(#clipPath330)"
             id="path356" />
        </g>
        <g
           clip-path="url(#clipPath333)"
           id="g357">
          <path
             d="m 27.787,18.159 v 0 c -3.455,0.601 -3.23,-4.506 -1.878,-7.66 1.352,-3.0793 4.882,-2.2532 5.107,-2.1781 2.253,1.0514 3.154,4.2051 1.727,7.1341 -2.628,5.558 -4.581,2.854 -4.581,2.854 l 1.202,-6.158 z"
             style="fill:#fefefe;fill-opacity:1;fill-rule:nonzero;stroke:none"
             transform="matrix(1.7530173,1.5967709e-6,0,-1.7524654,145.86667,396.93333)"
             clip-path="url(#clipPath332)"
             id="path357" />
        </g>
        <g
           clip-path="url(#clipPath335)"
           id="g358">
          <path
             d="m 41.004,24.993 v 0 c 2.704,-2.253 -1.352,-5.407 -4.656,-6.459 -3.154,-0.976 -4.506,2.178 -4.581,2.404 -0.601,1.877 0.826,5.181 3.98,6.008 5.933,1.577 5.107,-1.653 5.107,-1.653 l -5.407,-3.079 z"
             style="fill:#fefefe;fill-opacity:1;fill-rule:nonzero;stroke:none"
             transform="matrix(1.7530173,1.5967709e-6,0,-1.7524654,145.86667,396.93333)"
             clip-path="url(#clipPath334)"
             id="path358" />
        </g>
        <g
           clip-path="url(#clipPath337)"
           id="g359">
          <path
             d="m 7.7352,16.357 v 0 c 1.0514,-4.582 8.4858,-3.305 12.3918,-1.502 3.004,1.276 3.529,5.106 6.233,8.486 2.328,3.004 6.008,3.454 6.984,6.233 2.253,6.008 -2.178,10.589 -8.937,8.937 C 20.878,37.685 18.925,32.578 17.423,28.823 12.617,27.621 6.1581,22.89 7.7352,16.357 Z M 18.174,27.321 v 0 c 2.103,5.032 6.459,13.368 13.293,7.735 2.703,-6.083 -4.206,-7.359 -6.609,-10.514 -1.652,-2.027 -1.727,-5.257 -3.905,-6.984 -2.779,-2.178 -4.506,-2.178 -7.285,-2.403 -1.352,-0.075 -3.154,0.526 -4.1304,1.652 -0.1502,6.459 3.4544,9.388 8.6364,10.514 z"
             style="fill:#fefefe;fill-opacity:1;fill-rule:nonzero;stroke:none"
             transform="matrix(1.7530173,1.5967709e-6,0,-1.7524654,145.86667,396.93333)"
             clip-path="url(#clipPath336)"
             id="path359" />
        </g>
        <g
           clip-path="url(#clipPath339)"
           id="g360">
          <path
             d="m 27.186,37.384 v 0 c 0,-0.225 -0.075,-0.375 -0.15,-0.6 C 26.66,35.206 26.285,34.08 25.459,32.202 25.008,31.301 24.482,30.325 23.957,29.424 23.431,28.372 22.68,27.546 22.004,26.495 21.253,25.444 20.427,24.467 19.601,23.566 18.85,22.59 18.024,21.689 17.198,20.862 15.921,19.661 14.569,18.534 13.217,17.483 12.617,17.032 12.091,16.582 11.49,16.131 11.34,15.906 10.214,15.23 9.9131,15.305"
             style="fill:none;stroke:#fefefe;stroke-width:0.4506;stroke-linecap:butt;stroke-linejoin:miter;stroke-miterlimit:10;stroke-dasharray:none;stroke-opacity:1"
             transform="matrix(1.7530173,1.5967709e-6,0,-1.7524654,145.86667,396.93333)"
             clip-path="url(#clipPath338)"
             id="path360" />
        </g>
        <g
           clip-path="url(#clipPath341)"
           id="g361">
          <path
             d="m 29.439,37.384 v 0 c 0,-0.225 -1.577,-5.257 -2.403,-7.209 -0.751,-1.953 -2.554,-3.605 -3.68,-5.482 -1.277,-1.578 -2.779,-3.831 -3.229,-4.281 -1.202,-1.202 -1.953,-1.878 -3.305,-2.929 -0.601,-0.451 -1.126,-0.901 -1.727,-1.352 -0.451,-0.525 -3.83,-2.403 -2.854,-1.126"
             style="fill:none;stroke:#fefefe;stroke-width:0.4506;stroke-linecap:butt;stroke-linejoin:miter;stroke-miterlimit:10;stroke-dasharray:none;stroke-opacity:1"
             transform="matrix(1.7530173,1.5967709e-6,0,-1.7524654,145.86667,396.93333)"
             clip-path="url(#clipPath340)"
             id="path361" />
        </g>
        <g
           clip-path="url(#clipPath343)"
           id="g362">
          <path
             d="m 8.2609,17.408 v 0 c 0.4506,0 1.7273,0.826 2.0281,1.126 1.051,1.127 2.553,2.028 3.755,3.004 2.102,1.653 5.857,5.408 6.683,6.684 0.827,1.277 1.953,2.779 2.854,4.882 0.976,2.178 0.526,1.952 0.901,3.529"
             style="fill:none;stroke:#fefefe;stroke-width:0.4506;stroke-linecap:butt;stroke-linejoin:miter;stroke-miterlimit:10;stroke-dasharray:none;stroke-opacity:1"
             transform="matrix(1.7530173,1.5967709e-6,0,-1.7524654,145.86667,396.93333)"
             clip-path="url(#clipPath342)"
             id="path362" />
        </g>
        <g
           clip-path="url(#clipPath345)"
           id="g363">
          <path
             d="m 26.135,24.918 v 0 c 0.375,0.751 1.727,1.201 2.102,1.952 0.151,0.301 1.202,2.629 2.103,5.783 0.075,0.3 0.376,2.478 0.376,3.304"
             style="fill:none;stroke:#fefefe;stroke-width:0.4506;stroke-linecap:butt;stroke-linejoin:miter;stroke-miterlimit:10;stroke-dasharray:none;stroke-opacity:1"
             transform="matrix(1.7530173,1.5967709e-6,0,-1.7524654,145.86667,396.93333)"
             clip-path="url(#clipPath344)"
             id="path363" />
        </g>
        <g
           clip-path="url(#clipPath347)"
           id="g364">
          <path
             d="m 9.0119,21.613 v 0 C 9.5376,21.689 12.391,21.463 15.621,19.511 16.597,18.835 19,16.131 19,15.606"
             style="fill:none;stroke:#fefefe;stroke-width:0.4506;stroke-linecap:butt;stroke-linejoin:miter;stroke-miterlimit:10;stroke-dasharray:none;stroke-opacity:1"
             transform="matrix(1.7530173,1.5967709e-6,0,-1.7524654,145.86667,396.93333)"
             clip-path="url(#clipPath346)"
             id="path364" />
        </g>
        <g
           clip-path="url(#clipPath349)"
           id="g365">
          <path
             d="m 12.091,24.768 v 0 c 1.727,-0.301 4.806,-0.526 6.909,-2.404 2.103,-1.952 2.478,-3.905 2.704,-4.055"
             style="fill:none;stroke:#fefefe;stroke-width:0.4506;stroke-linecap:butt;stroke-linejoin:miter;stroke-miterlimit:10;stroke-dasharray:none;stroke-opacity:1"
             transform="matrix(1.7530173,1.5967709e-6,0,-1.7524654,145.86667,396.93333)"
             clip-path="url(#clipPath348)"
             id="path365" />
        </g>
        <g
           clip-path="url(#clipPath351)"
           id="g366">
          <path
             d="m 25.008,23.191 v 0 c -0.451,0.075 -1.051,1.952 -3.379,3.229 -3.079,1.652 -3.605,0.601 -5.332,0.976"
             style="fill:none;stroke:#fefefe;stroke-width:0.4506;stroke-linecap:butt;stroke-linejoin:miter;stroke-miterlimit:10;stroke-dasharray:none;stroke-opacity:1"
             transform="matrix(1.7530173,1.5967709e-6,0,-1.7524654,145.86667,396.93333)"
             clip-path="url(#clipPath350)"
             id="path366" />
        </g>
        <g
           clip-path="url(#clipPath353)"
           id="g367">
          <path
             d="m 28.688,26.795 v 0 c -0.526,0.826 -1.802,2.253 -3.38,3.38 -1.652,1.201 -5.031,1.727 -6.233,1.201"
             style="fill:none;stroke:#fefefe;stroke-width:0.4506;stroke-linecap:butt;stroke-linejoin:miter;stroke-miterlimit:10;stroke-dasharray:none;stroke-opacity:1"
             transform="matrix(1.7530173,1.5967709e-6,0,-1.7524654,145.86667,396.93333)"
             clip-path="url(#clipPath352)"
             id="path367" />
        </g>
        <g
           clip-path="url(#clipPath355)"
           id="g368">
          <path
             d="m 32.143,29.499 v 0 c -0.376,0.826 -2.629,2.703 -4.957,3.905 -1.051,0.601 -4.581,1.953 -6.459,1.352"
             style="fill:none;stroke:#fefefe;stroke-width:0.4506;stroke-linecap:butt;stroke-linejoin:miter;stroke-miterlimit:10;stroke-dasharray:none;stroke-opacity:1"
             transform="matrix(1.7530173,1.5967709e-6,0,-1.7524654,145.86667,396.93333)"
             clip-path="url(#clipPath354)"
             id="path368" />
        </g>
      </g>
    </g>
  </g>
</svg>
