<?xml version="1.0" encoding="UTF-8" standalone="no"?>
<!-- Created with Inkscape (http://www.inkscape.org/) -->

<svg
   version="1.1"
   id="svg1"
   width="79.302521"
   height="79.465607"
   viewBox="0 0 79.302521 79.46561"
   xmlns="http://www.w3.org/2000/svg"
   xmlns:svg="http://www.w3.org/2000/svg">
  <defs
     id="defs1">
    <clipPath
       clipPathUnits="userSpaceOnUse"
       id="clipPath303">
      <path
         d="M 0,45.345 V -0.61591 H 45.961 V 45.345"
         transform="translate(1.9054888e-6)"
         clip-rule="evenodd"
         id="path303" />
    </clipPath>
    <clipPath
       clipPathUnits="userSpaceOnUse"
       id="clipPath304">
      <path
         d="M 0,0 H 45.333 V 45.345 H 0 Z"
         transform="matrix(1.7493324,1.5967709e-6,-7.9813413e-7,-1.7524654,318.73333,224.4)"
         id="path304" />
    </clipPath>
    <clipPath
       clipPathUnits="userSpaceOnUse"
       id="clipPath305">
      <path
         d="M 0,45.345 V -0.61591 H 45.961 V 45.345"
         transform="translate(1.9054888e-6)"
         clip-rule="evenodd"
         id="path305" />
    </clipPath>
    <clipPath
       clipPathUnits="userSpaceOnUse"
       id="clipPath306">
      <path
         d="M 0,0 H 45.333 V 45.345 H 0 Z"
         transform="matrix(1.7493324,1.5967709e-6,-7.9813413e-7,-1.7524654,318.73333,224.4)"
         id="path306" />
    </clipPath>
    <clipPath
       clipPathUnits="userSpaceOnUse"
       id="clipPath309">
      <path
         d="M -3.0518e-5,3.0518e-4 H 595.19997 V 841.92031 H -3.0518e-5 Z"
         transform="matrix(1.3333333,0,0,-1.3333333,0,1122.56)"
         clip-rule="evenodd"
         id="path309" />
    </clipPath>
  </defs>
  <g
     id="g1"
     transform="translate(-318.73331,-144.93446)">
    <g
       id="g303">
      <g
         id="g309"
         clip-path="url(#clipPath309)">
        <g
           clip-path="url(#clipPath304)"
           id="g307">
          <path
             d="m 45.435,22.74 v 0 C 45.435,10.198 35.297,-0.015125 22.68,-0.015125 10.138,-0.015125 0,10.198 0,22.74 c 0,12.617 10.138,22.68 22.68,22.68 12.617,0 22.755,-10.063 22.755,-22.68 z"
             style="fill:#00adee;fill-opacity:1;fill-rule:nonzero;stroke:none"
             transform="matrix(1.7493324,1.5967709e-6,-7.9813413e-7,-1.7524654,318.73333,224.4)"
             clip-path="url(#clipPath303)"
             id="path307" />
        </g>
        <g
           clip-path="url(#clipPath306)"
           id="g308">
          <path
             d="m 29.214,15.906 v 0 c 0.751,1.277 0.976,3.905 0.976,4.731 0,0.301 0,0.526 0,0.751 -0.15,0.376 -0.3,0.751 -0.676,1.202 -0.3,0.375 -0.601,1.276 -0.976,2.178 -0.301,0.676 -0.601,1.351 -1.127,1.727 -0.375,0.225 -0.826,0.375 -1.201,0.601 -0.226,0.15 -0.376,0.375 -0.451,0.525 -0.075,0.376 0,0.902 -0.676,0.827 -0.225,0 -0.601,-0.301 -0.751,-0.376 -0.45,-0.225 -0.901,-0.075 -1.277,-0.075 -0.075,0 -0.075,0 -0.15,-0.075 -0.075,0 -0.15,0 -0.15,-0.075 -0.075,0.075 -0.15,0.075 -0.225,0.075 0,0.075 -0.075,0.075 -0.15,0.075 -0.376,0 -0.826,-0.15 -1.202,0.075 -0.225,0.075 -0.526,0.376 -0.826,0.376 -0.601,0.075 -0.601,-0.451 -0.676,-0.827 -0.075,-0.15 -0.225,-0.375 -0.451,-0.525 -0.3,-0.226 -0.826,-0.376 -1.126,-0.601 -0.601,-0.376 -0.901,-1.051 -1.202,-1.727 -0.375,-0.902 -0.6,-1.803 -0.976,-2.178 -0.375,-0.451 -0.526,-0.826 -0.601,-1.202 -0.075,-0.225 -0.075,-0.45 -0.075,-0.751 0,-0.826 0.225,-3.454 0.976,-4.731 0.151,-0.225 0.601,-0.601 1.202,-1.051 1.127,-0.827 2.629,-1.728 2.854,-1.728 0.3,0 1.502,-0.075 2.478,0 0.901,-0.075 2.178,0 2.403,0 0.226,0 1.803,0.901 2.854,1.728 0.601,0.45 1.051,0.826 1.202,1.051 z m 8.486,8.486 v 0 c -0.075,0 -0.225,-0.45 -0.376,-0.901 -0.15,-0.526 -0.3,-0.976 -0.375,-1.051 -0.075,-0.226 0,-0.451 0.225,-0.526 0.15,-0.15 0.451,-0.075 0.526,0.225 0.075,0.075 0.225,0.676 0.225,1.202 0,0.601 -0.15,1.126 -0.225,1.051 z M 34.32,11.4 v 0 c -0.225,0.075 -0.45,-0.075 -0.525,-0.3 0,-0.076 -0.075,-0.601 -0.301,-1.052 -0.225,-0.5255 -0.525,-0.901 -0.45,-0.9761 0.075,-0.1502 0.6,0.1502 0.976,0.6008 0.375,0.4503 0.601,1.1263 0.601,1.2013 0.075,0.301 -0.075,0.526 -0.301,0.526 z m -1.051,3.755 v 0 c -0.3,-0.225 -0.375,-0.601 -0.225,-0.826 0.6,-1.202 0.676,-1.803 0.826,-2.178 0.15,-0.376 0.3,-0.451 0.45,-0.451 0.151,0 0.376,0 0.451,0.526 0.075,0.376 0.15,1.352 -0.601,2.704 -0.225,0.3 -0.601,0.45 -0.901,0.225 z m -18.55,0.601 v 0 c -0.45,-0.601 -0.6,-1.052 -0.675,-1.352 0,-0.601 0.225,-0.676 0.525,-0.751 0.226,-0.15 0.526,-0.15 0.826,0.15 0.151,0.15 0.376,0.376 0.676,0.526 0.226,0.15 0.451,0.3 0.826,0.45 -0.525,0.376 -0.826,0.751 -0.976,0.977 -0.826,1.352 -1.051,4.055 -1.051,4.881 0,0.376 0,0.601 0.075,0.826 0,0.301 0.15,0.526 0.3,0.826 -3.004,0.977 -2.779,0.826 -3.304,0.376 -0.451,-0.225 -0.451,-1.202 2.703,-2.328 -1.577,-0.226 -2.328,-0.301 -2.703,-0.376 -0.376,-0.15 -0.451,-0.375 -0.526,-0.676 -0.075,-0.225 -0.15,-0.525 0.376,-0.751 0.525,-0.225 1.426,-0.375 3.079,-0.15 -0.902,-0.225 -1.502,-0.676 -1.878,-0.976 -0.526,-0.451 -0.751,-0.826 -0.901,-1.127 -0.225,-0.525 0,-0.675 0.225,-0.901 0.226,-0.15 0.451,-0.3 0.901,-0.075 0.451,0.15 0.977,0.751 2.253,1.052 -0.3,-0.151 -0.525,-0.376 -0.751,-0.601 z m 18.55,0.525 v 0 c -0.075,0.301 -0.3,0.676 -0.826,1.127 -0.451,0.3 -1.051,0.751 -1.953,0.976 1.653,-0.225 2.629,-0.075 3.154,0.15 0.526,0.226 0.451,0.526 0.376,0.751 -0.075,0.301 -0.15,0.526 -0.526,0.676 -0.375,0.075 -1.201,0.15 -2.703,0.376 3.154,1.126 3.154,2.103 2.703,2.328 -0.525,0.45 -0.3,0.601 -3.304,-0.376 0.225,-0.225 0.3,-0.525 0.375,-0.826 0,-0.225 0.076,-0.45 0.076,-0.826 0,-0.826 -0.301,-3.529 -1.052,-4.881 -0.15,-0.226 -0.526,-0.601 -1.051,-0.977 0.375,-0.15 0.601,-0.3 0.826,-0.45 0.3,-0.15 0.45,-0.376 0.676,-0.526 0.3,-0.3 0.525,-0.3 0.826,-0.15 0.3,0.075 0.526,0.15 0.45,0.751 0,0.3 -0.15,0.751 -0.675,1.352 -0.151,0.225 -0.376,0.45 -0.751,0.601 1.351,-0.301 1.877,-0.902 2.328,-1.052 0.375,-0.225 0.6,-0.075 0.826,0.075 0.225,0.226 0.45,0.376 0.225,0.901 z m -20.502,9.613 v 0 c 0.526,-1.277 1.577,-2.854 2.328,-3.454 0.075,0 0.15,0 0.15,-0.076 0.15,0.151 0.225,0.376 0.451,0.526 0.15,0.225 0.3,0.676 0.45,1.127 0.151,0.375 0.226,0.676 0.376,0.976 -0.526,0.451 -1.202,0.901 -1.652,1.277 0.676,0.751 0.525,2.178 0.3,3.379 0.075,0 0.15,0.075 0.225,0.075 0.075,0.075 4.882,2.629 3.53,6.759 -1.051,-2.328 -2.779,-3.53 -3.379,-3.905 -0.151,-0.075 -0.451,-0.225 -0.676,-0.376 -0.075,2.028 0.676,3.831 1.577,5.858 -0.901,-0.601 -1.728,-1.126 -2.103,-1.427 -1.051,-0.976 -1.953,-2.178 -2.478,-3.529 -0.826,-2.404 -0.601,-4.431 -0.226,-5.483 0.151,-0.6 0.451,-1.426 1.127,-1.727 z m 24.257,-4.281 v 0 c -0.15,0.151 -0.3,0.151 -0.601,-0.075 -0.3,-0.225 -0.751,-0.525 -1.952,-1.201 -0.151,-0.15 -0.301,-0.301 -0.301,-0.451 0,-0.15 0.075,-0.3 0.15,-0.45 0.075,-0.151 0.226,-0.226 0.451,-0.226 0.075,0 0.225,0 0.375,0.075 0.526,0.301 1.052,0.601 1.352,0.977 0.301,0.3 0.526,0.525 0.601,0.751 0.15,0.45 0.075,0.525 -0.075,0.6 z M 9.7629,26.119 v 0 c 0.2253,0.076 0.3001,0.301 0.3001,0.526 -0.0748,0.15 -0.225,0.601 -0.3001,1.127 -0.1502,0.45 -0.2253,0.976 -0.3755,0.976 -0.0751,0 -0.2253,-0.526 -0.2253,-1.051 0,-0.526 0.0751,-1.127 0.0751,-1.202 0.0751,-0.3 0.3004,-0.451 0.5257,-0.376 z M 8.4862,22.44 v 0 c -0.0751,0.075 -0.3004,0.525 -0.4506,1.051 -0.1502,0.451 -0.2253,0.901 -0.3004,0.901 -0.1502,0.075 -0.2253,-0.45 -0.2253,-1.051 0,-0.526 0.1502,-1.127 0.2253,-1.202 0.0751,-0.3 0.3004,-0.375 0.5257,-0.225 0.2253,0.075 0.3004,0.3 0.2253,0.526 z m 1.3518,3.454 v 0 c -0.1502,-0.075 -0.3004,-0.15 -0.2253,-0.601 0.0751,-0.375 0.3004,-1.201 1.2013,-2.328 0.301,-0.3 0.676,-0.3 0.901,-0.075 0.226,0.301 0.226,0.601 0.076,0.901 -0.826,0.977 -1.127,1.577 -1.352,1.878 -0.301,0.3 -0.4508,0.3 -0.601,0.225 z M 33.644,22.89 v 0 c 0.301,-0.225 0.676,-0.225 0.902,0.075 0.976,1.127 1.201,1.953 1.276,2.328 0,0.451 -0.075,0.526 -0.3,0.601 -0.15,0.075 -0.3,0.075 -0.526,-0.225 -0.225,-0.301 -0.525,-0.901 -1.352,-1.878 -0.225,-0.3 -0.225,-0.6 0,-0.901 z m 2.028,3.229 v 0 c 0.15,-0.075 0.451,0.076 0.451,0.376 0.075,0.075 0.15,0.676 0.15,1.202 -0.075,0.525 -0.15,1.051 -0.3,1.051 -0.076,0 -0.151,-0.526 -0.301,-0.976 -0.075,-0.526 -0.3,-0.977 -0.3,-1.127 -0.075,-0.225 0.075,-0.45 0.3,-0.526 z m -5.632,3.605 v 0 c 0.075,0 0.075,-0.075 0.15,-0.075 -0.15,-1.201 -0.3,-2.628 0.375,-3.379 -0.525,-0.376 -1.126,-0.826 -1.652,-1.277 0.15,-0.3 0.226,-0.601 0.376,-0.976 0.15,-0.451 0.375,-0.902 0.525,-1.127 0.151,-0.15 0.226,-0.3 0.376,-0.526 0,0.076 0.075,0.076 0.075,0.076 0.751,0.6 1.878,2.177 2.403,3.454 0.601,0.301 0.976,1.127 1.127,1.727 0.3,1.052 0.6,3.079 -0.226,5.483 -0.525,1.351 -1.426,2.553 -2.478,3.529 -0.375,0.301 -1.201,0.826 -2.178,1.427 0.977,-2.027 1.728,-3.83 1.652,-5.858 -0.3,0.151 -0.525,0.301 -0.675,0.376 -0.601,0.375 -2.329,1.577 -3.38,3.905 -1.427,-4.13 3.455,-6.684 3.53,-6.759 z M 11.115,19.436 v 0 c 0.075,0.15 0.15,0.3 0.15,0.45 0,0.15 -0.15,0.301 -0.3,0.451 -1.2772,0.676 -1.6527,0.976 -1.9531,1.201 -0.3004,0.226 -0.4506,0.226 -0.6008,0.075 -0.1502,-0.075 -0.3004,-0.15 -0.0751,-0.6 0.0751,-0.226 0.2253,-0.451 0.6008,-0.751 0.3004,-0.376 0.8261,-0.676 1.3522,-0.977 0.15,-0.075 0.225,-0.075 0.375,-0.075 0.15,0 0.376,0.075 0.451,0.226 z m 6.458,-9.313 v 0 c -0.525,0.15 -0.976,0.301 -1.126,0.301 -0.15,0.075 -0.451,0 -0.526,-0.226 -0.075,-0.2249 0.075,-0.4502 0.3,-0.5253 0.151,-0.0751 0.751,-0.1502 1.277,-0.1502 0.601,0 1.127,0.1502 1.127,0.2253 0,0.1502 -0.526,0.2253 -1.052,0.3752 z m 11.34,0.301 v 0 c -0.075,0 -0.601,-0.151 -1.126,-0.301 C 27.336,9.9731 26.81,9.898 26.81,9.7478 c 0,-0.0751 0.526,-0.2253 1.052,-0.2253 0.601,0 1.201,0.0751 1.277,0.1502 0.3,0.0751 0.45,0.3004 0.3,0.5253 -0.075,0.226 -0.3,0.301 -0.526,0.226 z m 2.028,2.929 v 0 c -0.3,-0.151 -0.526,-0.451 -0.451,-0.751 0.151,-1.052 -0.375,-1.352 -0.6,-1.728 -0.226,-0.225 -0.226,-0.375 -0.151,-0.525 0.075,-0.226 0.151,-0.3759 0.601,-0.226 0.225,0.075 0.601,0.226 0.901,0.676 0.376,0.376 0.601,1.202 0.451,2.028 0,0.375 -0.376,0.601 -0.751,0.526 z M 14.945,12.602 v 0 c 0.075,0.3 -0.15,0.6 -0.526,0.751 -0.3,0.075 -0.676,-0.151 -0.751,-0.526 -0.15,-0.826 0.15,-1.652 0.451,-2.028 0.375,-0.45 0.676,-0.601 0.901,-0.676 0.45,-0.1499 0.601,0 0.676,0.226 0.075,0.15 0.075,0.3 -0.15,0.525 -0.226,0.376 -0.751,0.676 -0.601,1.728 z m -2.779,2.553 v 0 c -0.3,0.225 -0.751,0.075 -0.901,-0.225 -0.751,-1.352 -0.751,-2.328 -0.676,-2.704 0.15,-0.526 0.3,-0.526 0.451,-0.526 0.225,0 0.375,0.075 0.45,0.451 0.15,0.375 0.301,0.976 0.901,2.178 0.151,0.225 0.075,0.601 -0.225,0.826 z M 11.565,11.1 v 0 c 0,0.225 -0.225,0.375 -0.45,0.3 -0.226,0 -0.376,-0.225 -0.301,-0.526 0,-0.075 0.226,-0.751 0.601,-1.2013 0.376,-0.4506 0.826,-0.751 0.901,-0.6008 0.075,0.0751 -0.225,0.4506 -0.375,0.9761 -0.226,0.451 -0.301,0.976 -0.376,1.052 z"
             style="fill:#fefefe;fill-opacity:1;fill-rule:nonzero;stroke:none"
             transform="matrix(1.7493324,1.5967709e-6,-7.9813413e-7,-1.7524654,318.73333,224.4)"
             clip-path="url(#clipPath305)"
             id="path308" />
        </g>
      </g>
    </g>
  </g>
</svg>
