<?xml version="1.0" encoding="UTF-8" standalone="no"?>
<!-- Created with Inkscape (http://www.inkscape.org/) -->

<svg
   version="1.1"
   id="svg1"
   width="79.30249"
   height="79.465637"
   viewBox="0 0 79.302491 79.46564"
   xmlns="http://www.w3.org/2000/svg"
   xmlns:svg="http://www.w3.org/2000/svg">
  <defs
     id="defs1">
    <clipPath
       clipPathUnits="userSpaceOnUse"
       id="clipPath396">
      <path
         d="M 0,45.345 V -0.61591 H 45.961 V 45.345"
         transform="translate(-1.9054905e-6)"
         clip-rule="evenodd"
         id="path396" />
    </clipPath>
    <clipPath
       clipPathUnits="userSpaceOnUse"
       id="clipPath397">
      <path
         d="M 0,0 H 45.333 V 45.345 H 0 Z"
         transform="matrix(1.7493324,1.5967709e-6,-1.5962683e-6,-1.7524654,644.86667,396.93333)"
         id="path397" />
    </clipPath>
    <clipPath
       clipPathUnits="userSpaceOnUse"
       id="clipPath398">
      <path
         d="M 0,45.345 V -0.61591 H 45.961 V 45.345"
         transform="translate(-1.9054905e-6)"
         clip-rule="evenodd"
         id="path398" />
    </clipPath>
    <clipPath
       clipPathUnits="userSpaceOnUse"
       id="clipPath399">
      <path
         d="M 0,0 H 45.333 V 45.345 H 0 Z"
         transform="matrix(1.7493324,1.5967709e-6,-1.5962683e-6,-1.7524654,644.86667,396.93333)"
         id="path399" />
    </clipPath>
    <clipPath
       clipPathUnits="userSpaceOnUse"
       id="clipPath400">
      <path
         d="M 0,45.345 V -0.61591 H 45.961 V 45.345"
         transform="translate(-1.9054905e-6)"
         clip-rule="evenodd"
         id="path400" />
    </clipPath>
    <clipPath
       clipPathUnits="userSpaceOnUse"
       id="clipPath401">
      <path
         d="M 0,0 H 45.333 V 45.345 H 0 Z"
         transform="matrix(1.7493324,1.5967709e-6,-1.5962683e-6,-1.7524654,644.86667,396.93333)"
         id="path401" />
    </clipPath>
    <clipPath
       clipPathUnits="userSpaceOnUse"
       id="clipPath405">
      <path
         d="M -3.0518e-5,2.4414e-4 H 595.19997 V 841.92024 H -3.0518e-5 Z"
         transform="matrix(1.3333333,0,0,-1.3333333,0,1122.56)"
         clip-rule="evenodd"
         id="path405" />
    </clipPath>
  </defs>
  <g
     id="g1"
     transform="translate(-644.86663,-317.46779)">
    <g
       id="g396">
      <g
         id="g405"
         clip-path="url(#clipPath405)">
        <g
           clip-path="url(#clipPath397)"
           id="g402">
          <path
             d="m 22.68,-0.015125 v 0 C 10.138,-0.015125 0,10.198 0,22.74 0,35.357 10.138,45.42 22.68,45.42 35.297,45.42 45.435,35.357 45.435,22.74 45.435,10.198 35.297,-0.015125 22.68,-0.015125 Z"
             style="fill:#be5854;fill-opacity:1;fill-rule:nonzero;stroke:none"
             transform="matrix(1.7493324,1.5967709e-6,-1.5962683e-6,-1.7524654,644.86667,396.93333)"
             clip-path="url(#clipPath396)"
             id="path402" />
        </g>
        <g
           clip-path="url(#clipPath399)"
           id="g403">
          <path
             d="m 28.012,9.3723 v 0 c 1.127,0.2253 2.028,0.6757 2.854,1.1267 0.601,0.976 0.901,2.253 1.277,3.379 0.225,-0.601 0.225,-1.802 0.225,-2.478 1.802,1.051 2.403,3.154 2.553,5.632 0.301,5.708 -0.751,9.989 -3.529,13.218 -1.202,1.352 -2.404,2.478 -3.755,3.304 -1.953,1.127 -4.206,2.028 -4.882,4.281 -1.051,-2.854 -1.727,-6.384 -2.253,-9.913 -0.225,-1.352 -0.601,-2.779 -0.676,-4.131 -0.375,-5.257 0.226,-10.514 1.878,-13.8179 0.15,-0.3004 0.225,-0.751 0.601,-0.8261 -0.376,2.628 -1.953,5.858 -2.178,9.087 -0.451,6.834 1.126,13.593 3.379,17.723 V 35.882 C 22.38,33.254 22.079,30.4 21.629,26.72 c -0.226,-1.877 -0.676,-3.98 -0.676,-5.782 0.075,-3.981 0.3,-7.886 1.577,-10.514 1.126,2.778 3.079,-1.5023 5.031,-0.9766 -1.051,1.5766 -0.45,4.2056 -0.225,6.3086 0.225,-2.103 0.451,-4.281 0.676,-6.3837 z m 0.451,7.9607 v 0 c -0.526,1.352 -0.676,3.229 -0.151,4.656 0.526,-1.352 0.676,-3.379 0.151,-4.656 z m 1.276,-5.107 v 0 c 0,1.727 -0.075,3.38 0.376,4.581 0.375,-1.352 0.826,-3.755 -0.376,-4.581 z M 28.838,26.57 v 0 c 1.878,-0.526 1.803,-3.079 2.028,-5.332 -0.826,1.577 -1.352,3.605 -2.028,5.332 z m 4.506,-9.538 v 0 c -0.526,2.103 -0.3,4.957 -1.277,6.609 1.803,-0.526 1.878,-4.356 1.277,-6.609 z m -1.577,9.463 v 0 c -1.352,2.028 -3.079,3.68 -3.98,6.158 1.502,-1.502 3.454,-3.304 3.98,-6.158 z m -7.961,7.885 v 0 c 0.451,-1.427 1.202,-2.553 1.202,-4.355 -0.901,0.976 -1.502,2.403 -1.202,4.355 z M 23.281,24.242 v 0 c 0.375,-1.427 0.525,-3.304 0.901,-4.506 -1.202,0.451 -1.727,2.854 -0.901,4.506 z m -0.075,-6.308 v 0 c 0.3,-2.328 1.502,-3.755 2.253,-5.708 -1.127,1.202 -3.53,3.38 -2.253,5.708 z m 3.154,3.229 v 0 c -0.376,1.577 -0.526,3.454 -0.451,5.407 1.277,-0.976 0.601,-3.605 0.451,-5.407 z"
             style="fill:#fefefe;fill-opacity:1;fill-rule:nonzero;stroke:none"
             transform="matrix(1.7493324,1.5967709e-6,-1.5962683e-6,-1.7524654,644.86667,396.93333)"
             clip-path="url(#clipPath398)"
             id="path403" />
        </g>
        <g
           clip-path="url(#clipPath401)"
           id="g404">
          <path
             d="m 18.399,9.8229 v 0 c -0.15,0.5261 -0.6,1.3521 -0.3,2.1031 0.375,-0.526 0.751,-0.977 1.051,-1.577 0.301,0 0.301,0.3 0.526,0.375 0.451,-0.451 0.976,-1.3517 1.577,-1.4268 -2.403,3.0038 -2.854,7.5848 -3.079,12.2408 -0.225,5.858 1.802,10.364 3.38,14.57 -1.953,-1.577 -4.431,-2.253 -6.234,-4.131 -3.004,-3.004 -4.581,-8.336 -4.806,-13.593 -0.075,-0.601 -0.075,-1.276 0,-1.877 0.075,-1.652 1.727,-2.929 2.553,-3.83 -0.45,0.525 -0.901,1.502 -0.601,2.478 1.578,-2.178 2.329,-5.257 5.933,-5.3321 z M 16.822,22.44 v 0 c -0.676,2.177 -0.901,5.932 0.901,7.134 -0.675,-1.727 -0.751,-4.731 -0.901,-7.134 z m -0.075,9.312 v 0 c 0.526,0.976 0.451,1.727 2.028,1.802 -1.202,-0.976 -1.427,-2.929 -3.079,-3.529 -0.075,0.826 0.601,1.051 1.051,1.727 z M 15.47,16.357 v 0 c 0.226,-0.601 0.676,-1.127 0.526,-2.103 -0.45,0.15 -0.375,0.525 -0.601,0.976 -0.225,0.451 -0.751,0.751 -0.901,1.202 -0.45,1.201 0.075,2.628 0.15,3.98 0.451,-0.976 0.451,-2.779 0.826,-4.055 z m -1.351,11.565 v 0 c 0.45,-1.052 0.525,-3.605 0.075,-4.656 -0.601,1.351 -0.751,3.154 -0.075,4.656 z m -1.878,-4.056 v 0 c -0.225,-2.253 0,-4.956 0.301,-7.284 -1.127,1.802 -1.803,5.407 -0.301,7.284 z"
             style="fill:#fefefe;fill-opacity:1;fill-rule:nonzero;stroke:none"
             transform="matrix(1.7493324,1.5967709e-6,-1.5962683e-6,-1.7524654,644.86667,396.93333)"
             clip-path="url(#clipPath400)"
             id="path404" />
        </g>
      </g>
    </g>
  </g>
</svg>
