<?xml version="1.0" encoding="UTF-8" standalone="no"?>
<!-- Created with Inkscape (http://www.inkscape.org/) -->

<svg
   version="1.1"
   id="svg1"
   width="79.469543"
   height="79.465622"
   viewBox="0 0 79.469544 79.465625"
   xmlns="http://www.w3.org/2000/svg"
   xmlns:svg="http://www.w3.org/2000/svg">
  <defs
     id="defs1">
    <clipPath
       clipPathUnits="userSpaceOnUse"
       id="clipPath173">
      <path
         d="M 0,45.345 V -0.61591 H 45.961 V 45.345"
         transform="translate(1.9014834e-6)"
         clip-rule="evenodd"
         id="path173" />
    </clipPath>
    <clipPath
       clipPathUnits="userSpaceOnUse"
       id="clipPath174">
      <path
         d="M 0,0 H 45.333 V 45.345 H 0 Z"
         transform="matrix(1.7530173,1.5967709e-6,-1.9900427e-7,-1.7524654,144.73333,224.4)"
         id="path174" />
    </clipPath>
    <clipPath
       clipPathUnits="userSpaceOnUse"
       id="clipPath175">
      <path
         d="M 0,45.345 V -0.61591 H 45.961 V 45.345"
         transform="translate(1.9014834e-6)"
         clip-rule="evenodd"
         id="path175" />
    </clipPath>
    <clipPath
       clipPathUnits="userSpaceOnUse"
       id="clipPath176">
      <path
         d="M 0,0 H 45.333 V 45.345 H 0 Z"
         transform="matrix(1.7530173,1.5967709e-6,-1.9900427e-7,-1.7524654,144.73333,224.4)"
         id="path176" />
    </clipPath>
    <clipPath
       clipPathUnits="userSpaceOnUse"
       id="clipPath177">
      <path
         d="M 0,45.345 V -0.61591 H 45.961 V 45.345"
         transform="translate(1.9014834e-6)"
         clip-rule="evenodd"
         id="path177" />
    </clipPath>
    <clipPath
       clipPathUnits="userSpaceOnUse"
       id="clipPath178">
      <path
         d="M 0,0 H 45.333 V 45.345 H 0 Z"
         transform="matrix(1.7530173,1.5967709e-6,-1.9900427e-7,-1.7524654,144.73333,224.4)"
         id="path178" />
    </clipPath>
    <clipPath
       clipPathUnits="userSpaceOnUse"
       id="clipPath179">
      <path
         d="M 0,45.345 V -0.61591 H 45.961 V 45.345"
         transform="translate(1.9014834e-6)"
         clip-rule="evenodd"
         id="path179" />
    </clipPath>
    <clipPath
       clipPathUnits="userSpaceOnUse"
       id="clipPath180">
      <path
         d="M 0,0 H 45.333 V 45.345 H 0 Z"
         transform="matrix(1.7530173,1.5967709e-6,-1.9900427e-7,-1.7524654,144.73333,224.4)"
         id="path180" />
    </clipPath>
    <clipPath
       clipPathUnits="userSpaceOnUse"
       id="clipPath181">
      <path
         d="M 0,45.345 V -0.61591 H 45.961 V 45.345"
         transform="translate(1.9014834e-6)"
         clip-rule="evenodd"
         id="path181" />
    </clipPath>
    <clipPath
       clipPathUnits="userSpaceOnUse"
       id="clipPath182">
      <path
         d="M 0,0 H 45.333 V 45.345 H 0 Z"
         transform="matrix(1.7530173,1.5967709e-6,-1.9900427e-7,-1.7524654,144.73333,224.4)"
         id="path182" />
    </clipPath>
    <clipPath
       clipPathUnits="userSpaceOnUse"
       id="clipPath183">
      <path
         d="M 0,45.345 V -0.61591 H 45.961 V 45.345"
         transform="translate(1.9014834e-6)"
         clip-rule="evenodd"
         id="path183" />
    </clipPath>
    <clipPath
       clipPathUnits="userSpaceOnUse"
       id="clipPath184">
      <path
         d="M 0,0 H 45.333 V 45.345 H 0 Z"
         transform="matrix(1.7530173,1.5967709e-6,-1.9900427e-7,-1.7524654,144.73333,224.4)"
         id="path184" />
    </clipPath>
    <clipPath
       clipPathUnits="userSpaceOnUse"
       id="clipPath185">
      <path
         d="M 0,45.345 V -0.61591 H 45.961 V 45.345"
         transform="translate(1.9014834e-6)"
         clip-rule="evenodd"
         id="path185" />
    </clipPath>
    <clipPath
       clipPathUnits="userSpaceOnUse"
       id="clipPath186">
      <path
         d="M 0,0 H 45.333 V 45.345 H 0 Z"
         transform="matrix(1.7530173,1.5967709e-6,-1.9900427e-7,-1.7524654,144.73333,224.4)"
         id="path186" />
    </clipPath>
    <clipPath
       clipPathUnits="userSpaceOnUse"
       id="clipPath187">
      <path
         d="M 0,45.345 V -0.61591 H 45.961 V 45.345"
         transform="translate(1.9014834e-6)"
         clip-rule="evenodd"
         id="path187" />
    </clipPath>
    <clipPath
       clipPathUnits="userSpaceOnUse"
       id="clipPath188">
      <path
         d="M 0,0 H 45.333 V 45.345 H 0 Z"
         transform="matrix(1.7530173,1.5967709e-6,-1.9900427e-7,-1.7524654,144.73333,224.4)"
         id="path188" />
    </clipPath>
    <clipPath
       clipPathUnits="userSpaceOnUse"
       id="clipPath189">
      <path
         d="M 0,45.345 V -0.61591 H 45.961 V 45.345"
         transform="translate(1.9014834e-6)"
         clip-rule="evenodd"
         id="path189" />
    </clipPath>
    <clipPath
       clipPathUnits="userSpaceOnUse"
       id="clipPath190">
      <path
         d="M 0,0 H 45.333 V 45.345 H 0 Z"
         transform="matrix(1.7530173,1.5967709e-6,-1.9900427e-7,-1.7524654,144.73333,224.4)"
         id="path190" />
    </clipPath>
    <clipPath
       clipPathUnits="userSpaceOnUse"
       id="clipPath191">
      <path
         d="M 0,45.345 V -0.61591 H 45.961 V 45.345"
         transform="translate(1.9014834e-6)"
         clip-rule="evenodd"
         id="path191" />
    </clipPath>
    <clipPath
       clipPathUnits="userSpaceOnUse"
       id="clipPath192">
      <path
         d="M 0,0 H 45.333 V 45.345 H 0 Z"
         transform="matrix(1.7530173,1.5967709e-6,-1.9900427e-7,-1.7524654,144.73333,224.4)"
         id="path192" />
    </clipPath>
    <clipPath
       clipPathUnits="userSpaceOnUse"
       id="clipPath193">
      <path
         d="M 0,45.345 V -0.61591 H 45.961 V 45.345"
         transform="translate(1.9014834e-6)"
         clip-rule="evenodd"
         id="path193" />
    </clipPath>
    <clipPath
       clipPathUnits="userSpaceOnUse"
       id="clipPath194">
      <path
         d="M 0,0 H 45.333 V 45.345 H 0 Z"
         transform="matrix(1.7530173,1.5967709e-6,-1.9900427e-7,-1.7524654,144.73333,224.4)"
         id="path194" />
    </clipPath>
    <clipPath
       clipPathUnits="userSpaceOnUse"
       id="clipPath195">
      <path
         d="M 0,45.345 V -0.61591 H 45.961 V 45.345"
         transform="translate(1.9014834e-6)"
         clip-rule="evenodd"
         id="path195" />
    </clipPath>
    <clipPath
       clipPathUnits="userSpaceOnUse"
       id="clipPath196">
      <path
         d="M 0,0 H 45.333 V 45.345 H 0 Z"
         transform="matrix(1.7530173,1.5967709e-6,-1.9900427e-7,-1.7524654,144.73333,224.4)"
         id="path196" />
    </clipPath>
    <clipPath
       clipPathUnits="userSpaceOnUse"
       id="clipPath197">
      <path
         d="M 0,45.345 V -0.61591 H 45.961 V 45.345"
         transform="translate(1.9014834e-6)"
         clip-rule="evenodd"
         id="path197" />
    </clipPath>
    <clipPath
       clipPathUnits="userSpaceOnUse"
       id="clipPath198">
      <path
         d="M 0,0 H 45.333 V 45.345 H 0 Z"
         transform="matrix(1.7530173,1.5967709e-6,-1.9900427e-7,-1.7524654,144.73333,224.4)"
         id="path198" />
    </clipPath>
    <clipPath
       clipPathUnits="userSpaceOnUse"
       id="clipPath199">
      <path
         d="M 0,45.345 V -0.61591 H 45.961 V 45.345"
         transform="translate(1.9014834e-6)"
         clip-rule="evenodd"
         id="path199" />
    </clipPath>
    <clipPath
       clipPathUnits="userSpaceOnUse"
       id="clipPath200">
      <path
         d="M 0,0 H 45.333 V 45.345 H 0 Z"
         transform="matrix(1.7530173,1.5967709e-6,-1.9900427e-7,-1.7524654,144.73333,224.4)"
         id="path200" />
    </clipPath>
    <clipPath
       clipPathUnits="userSpaceOnUse"
       id="clipPath201">
      <path
         d="M 0,45.345 V -0.61591 H 45.961 V 45.345"
         transform="translate(1.9014834e-6)"
         clip-rule="evenodd"
         id="path201" />
    </clipPath>
    <clipPath
       clipPathUnits="userSpaceOnUse"
       id="clipPath202">
      <path
         d="M 0,0 H 45.333 V 45.345 H 0 Z"
         transform="matrix(1.7530173,1.5967709e-6,-1.9900427e-7,-1.7524654,144.73333,224.4)"
         id="path202" />
    </clipPath>
    <clipPath
       clipPathUnits="userSpaceOnUse"
       id="clipPath203">
      <path
         d="M 0,45.345 V -0.61591 H 45.961 V 45.345"
         transform="translate(1.9014834e-6)"
         clip-rule="evenodd"
         id="path203" />
    </clipPath>
    <clipPath
       clipPathUnits="userSpaceOnUse"
       id="clipPath204">
      <path
         d="M 0,0 H 45.333 V 45.345 H 0 Z"
         transform="matrix(1.7530173,1.5967709e-6,-1.9900427e-7,-1.7524654,144.73333,224.4)"
         id="path204" />
    </clipPath>
    <clipPath
       clipPathUnits="userSpaceOnUse"
       id="clipPath205">
      <path
         d="M 0,45.345 V -0.61591 H 45.961 V 45.345"
         transform="translate(1.9014834e-6)"
         clip-rule="evenodd"
         id="path205" />
    </clipPath>
    <clipPath
       clipPathUnits="userSpaceOnUse"
       id="clipPath206">
      <path
         d="M 0,0 H 45.333 V 45.345 H 0 Z"
         transform="matrix(1.7530173,1.5967709e-6,-1.9900427e-7,-1.7524654,144.73333,224.4)"
         id="path206" />
    </clipPath>
    <clipPath
       clipPathUnits="userSpaceOnUse"
       id="clipPath207">
      <path
         d="M 0,45.345 V -0.61591 H 45.961 V 45.345"
         transform="translate(1.9014834e-6)"
         clip-rule="evenodd"
         id="path207" />
    </clipPath>
    <clipPath
       clipPathUnits="userSpaceOnUse"
       id="clipPath208">
      <path
         d="M 0,0 H 45.333 V 45.345 H 0 Z"
         transform="matrix(1.7530173,1.5967709e-6,-1.9900427e-7,-1.7524654,144.73333,224.4)"
         id="path208" />
    </clipPath>
    <clipPath
       clipPathUnits="userSpaceOnUse"
       id="clipPath209">
      <path
         d="M 0,45.345 V -0.61591 H 45.961 V 45.345"
         transform="translate(1.9014834e-6)"
         clip-rule="evenodd"
         id="path209" />
    </clipPath>
    <clipPath
       clipPathUnits="userSpaceOnUse"
       id="clipPath210">
      <path
         d="M 0,0 H 45.333 V 45.345 H 0 Z"
         transform="matrix(1.7530173,1.5967709e-6,-1.9900427e-7,-1.7524654,144.73333,224.4)"
         id="path210" />
    </clipPath>
    <clipPath
       clipPathUnits="userSpaceOnUse"
       id="clipPath211">
      <path
         d="M 0,45.345 V -0.61591 H 45.961 V 45.345"
         transform="translate(1.9014834e-6)"
         clip-rule="evenodd"
         id="path211" />
    </clipPath>
    <clipPath
       clipPathUnits="userSpaceOnUse"
       id="clipPath212">
      <path
         d="M 0,0 H 45.333 V 45.345 H 0 Z"
         transform="matrix(1.7530173,1.5967709e-6,-1.9900427e-7,-1.7524654,144.73333,224.4)"
         id="path212" />
    </clipPath>
    <clipPath
       clipPathUnits="userSpaceOnUse"
       id="clipPath213">
      <path
         d="M 0,45.345 V -0.61591 H 45.961 V 45.345"
         transform="translate(1.9014834e-6)"
         clip-rule="evenodd"
         id="path213" />
    </clipPath>
    <clipPath
       clipPathUnits="userSpaceOnUse"
       id="clipPath214">
      <path
         d="M 0,0 H 45.333 V 45.345 H 0 Z"
         transform="matrix(1.7530173,1.5967709e-6,-1.9900427e-7,-1.7524654,144.73333,224.4)"
         id="path214" />
    </clipPath>
    <clipPath
       clipPathUnits="userSpaceOnUse"
       id="clipPath215">
      <path
         d="M 0,45.345 V -0.61591 H 45.961 V 45.345"
         transform="translate(1.9014834e-6)"
         clip-rule="evenodd"
         id="path215" />
    </clipPath>
    <clipPath
       clipPathUnits="userSpaceOnUse"
       id="clipPath216">
      <path
         d="M 0,0 H 45.333 V 45.345 H 0 Z"
         transform="matrix(1.7530173,1.5967709e-6,-1.9900427e-7,-1.7524654,144.73333,224.4)"
         id="path216" />
    </clipPath>
    <clipPath
       clipPathUnits="userSpaceOnUse"
       id="clipPath217">
      <path
         d="M 0,45.345 V -0.61591 H 45.961 V 45.345"
         transform="translate(1.9014834e-6)"
         clip-rule="evenodd"
         id="path217" />
    </clipPath>
    <clipPath
       clipPathUnits="userSpaceOnUse"
       id="clipPath218">
      <path
         d="M 0,0 H 45.333 V 45.345 H 0 Z"
         transform="matrix(1.7530173,1.5967709e-6,-1.9900427e-7,-1.7524654,144.73333,224.4)"
         id="path218" />
    </clipPath>
    <clipPath
       clipPathUnits="userSpaceOnUse"
       id="clipPath219">
      <path
         d="M 0,45.345 V -0.61591 H 45.961 V 45.345"
         transform="translate(1.9014834e-6)"
         clip-rule="evenodd"
         id="path219" />
    </clipPath>
    <clipPath
       clipPathUnits="userSpaceOnUse"
       id="clipPath220">
      <path
         d="M 0,0 H 45.333 V 45.345 H 0 Z"
         transform="matrix(1.7530173,1.5967709e-6,-1.9900427e-7,-1.7524654,144.73333,224.4)"
         id="path220" />
    </clipPath>
    <clipPath
       clipPathUnits="userSpaceOnUse"
       id="clipPath221">
      <path
         d="M 0,45.345 V -0.61591 H 45.961 V 45.345"
         transform="translate(1.9014834e-6)"
         clip-rule="evenodd"
         id="path221" />
    </clipPath>
    <clipPath
       clipPathUnits="userSpaceOnUse"
       id="clipPath222">
      <path
         d="M 0,0 H 45.333 V 45.345 H 0 Z"
         transform="matrix(1.7530173,1.5967709e-6,-1.9900427e-7,-1.7524654,144.73333,224.4)"
         id="path222" />
    </clipPath>
    <clipPath
       clipPathUnits="userSpaceOnUse"
       id="clipPath223">
      <path
         d="M 0,45.345 V -0.61591 H 45.961 V 45.345"
         transform="translate(1.9014834e-6)"
         clip-rule="evenodd"
         id="path223" />
    </clipPath>
    <clipPath
       clipPathUnits="userSpaceOnUse"
       id="clipPath224">
      <path
         d="M 0,0 H 45.333 V 45.345 H 0 Z"
         transform="matrix(1.7530173,1.5967709e-6,-1.9900427e-7,-1.7524654,144.73333,224.4)"
         id="path224" />
    </clipPath>
    <clipPath
       clipPathUnits="userSpaceOnUse"
       id="clipPath225">
      <path
         d="M 0,45.345 V -0.61591 H 45.961 V 45.345"
         transform="translate(1.9014834e-6)"
         clip-rule="evenodd"
         id="path225" />
    </clipPath>
    <clipPath
       clipPathUnits="userSpaceOnUse"
       id="clipPath226">
      <path
         d="M 0,0 H 45.333 V 45.345 H 0 Z"
         transform="matrix(1.7530173,1.5967709e-6,-1.9900427e-7,-1.7524654,144.73333,224.4)"
         id="path226" />
    </clipPath>
    <clipPath
       clipPathUnits="userSpaceOnUse"
       id="clipPath227">
      <path
         d="M 0,45.345 V -0.61591 H 45.961 V 45.345"
         transform="translate(1.9014834e-6)"
         clip-rule="evenodd"
         id="path227" />
    </clipPath>
    <clipPath
       clipPathUnits="userSpaceOnUse"
       id="clipPath228">
      <path
         d="M 0,0 H 45.333 V 45.345 H 0 Z"
         transform="matrix(1.7530173,1.5967709e-6,-1.9900427e-7,-1.7524654,144.73333,224.4)"
         id="path228" />
    </clipPath>
    <clipPath
       clipPathUnits="userSpaceOnUse"
       id="clipPath229">
      <path
         d="M 0,45.345 V -0.61591 H 45.961 V 45.345"
         transform="translate(1.9014834e-6)"
         clip-rule="evenodd"
         id="path229" />
    </clipPath>
    <clipPath
       clipPathUnits="userSpaceOnUse"
       id="clipPath230">
      <path
         d="M 0,0 H 45.333 V 45.345 H 0 Z"
         transform="matrix(1.7530173,1.5967709e-6,-1.9900427e-7,-1.7524654,144.73333,224.4)"
         id="path230" />
    </clipPath>
    <clipPath
       clipPathUnits="userSpaceOnUse"
       id="clipPath231">
      <path
         d="M 0,45.345 V -0.61591 H 45.961 V 45.345"
         transform="translate(1.9014834e-6)"
         clip-rule="evenodd"
         id="path231" />
    </clipPath>
    <clipPath
       clipPathUnits="userSpaceOnUse"
       id="clipPath232">
      <path
         d="M 0,0 H 45.333 V 45.345 H 0 Z"
         transform="matrix(1.7530173,1.5967709e-6,-1.9900427e-7,-1.7524654,144.73333,224.4)"
         id="path232" />
    </clipPath>
    <clipPath
       clipPathUnits="userSpaceOnUse"
       id="clipPath233">
      <path
         d="M 0,45.345 V -0.61591 H 45.961 V 45.345"
         transform="translate(1.9014834e-6)"
         clip-rule="evenodd"
         id="path233" />
    </clipPath>
    <clipPath
       clipPathUnits="userSpaceOnUse"
       id="clipPath234">
      <path
         d="M 0,0 H 45.333 V 45.345 H 0 Z"
         transform="matrix(1.7530173,1.5967709e-6,-1.9900427e-7,-1.7524654,144.73333,224.4)"
         id="path234" />
    </clipPath>
    <clipPath
       clipPathUnits="userSpaceOnUse"
       id="clipPath235">
      <path
         d="M 0,45.345 V -0.61591 H 45.961 V 45.345"
         transform="translate(1.9014834e-6)"
         clip-rule="evenodd"
         id="path235" />
    </clipPath>
    <clipPath
       clipPathUnits="userSpaceOnUse"
       id="clipPath236">
      <path
         d="M 0,0 H 45.333 V 45.345 H 0 Z"
         transform="matrix(1.7530173,1.5967709e-6,-1.9900427e-7,-1.7524654,144.73333,224.4)"
         id="path236" />
    </clipPath>
    <clipPath
       clipPathUnits="userSpaceOnUse"
       id="clipPath237">
      <path
         d="M 0,45.345 V -0.61591 H 45.961 V 45.345"
         transform="translate(1.9014834e-6)"
         clip-rule="evenodd"
         id="path237" />
    </clipPath>
    <clipPath
       clipPathUnits="userSpaceOnUse"
       id="clipPath238">
      <path
         d="M 0,0 H 45.333 V 45.345 H 0 Z"
         transform="matrix(1.7530173,1.5967709e-6,-1.9900427e-7,-1.7524654,144.73333,224.4)"
         id="path238" />
    </clipPath>
    <clipPath
       clipPathUnits="userSpaceOnUse"
       id="clipPath239">
      <path
         d="M 0,45.345 V -0.61591 H 45.961 V 45.345"
         transform="translate(1.9014834e-6)"
         clip-rule="evenodd"
         id="path239" />
    </clipPath>
    <clipPath
       clipPathUnits="userSpaceOnUse"
       id="clipPath240">
      <path
         d="M 0,0 H 45.333 V 45.345 H 0 Z"
         transform="matrix(1.7530173,1.5967709e-6,-1.9900427e-7,-1.7524654,144.73333,224.4)"
         id="path240" />
    </clipPath>
    <clipPath
       clipPathUnits="userSpaceOnUse"
       id="clipPath241">
      <path
         d="M 0,45.345 V -0.61591 H 45.961 V 45.345"
         transform="translate(1.9014834e-6)"
         clip-rule="evenodd"
         id="path241" />
    </clipPath>
    <clipPath
       clipPathUnits="userSpaceOnUse"
       id="clipPath242">
      <path
         d="M 0,0 H 45.333 V 45.345 H 0 Z"
         transform="matrix(1.7530173,1.5967709e-6,-1.9900427e-7,-1.7524654,144.73333,224.4)"
         id="path242" />
    </clipPath>
    <clipPath
       clipPathUnits="userSpaceOnUse"
       id="clipPath243">
      <path
         d="M 0,45.345 V -0.61591 H 45.961 V 45.345"
         transform="translate(1.9014834e-6)"
         clip-rule="evenodd"
         id="path243" />
    </clipPath>
    <clipPath
       clipPathUnits="userSpaceOnUse"
       id="clipPath244">
      <path
         d="M 0,0 H 45.333 V 45.345 H 0 Z"
         transform="matrix(1.7530173,1.5967709e-6,-1.9900427e-7,-1.7524654,144.73333,224.4)"
         id="path244" />
    </clipPath>
    <clipPath
       clipPathUnits="userSpaceOnUse"
       id="clipPath245">
      <path
         d="M 0,45.345 V -0.61591 H 45.961 V 45.345"
         transform="translate(1.9014834e-6)"
         clip-rule="evenodd"
         id="path245" />
    </clipPath>
    <clipPath
       clipPathUnits="userSpaceOnUse"
       id="clipPath246">
      <path
         d="M 0,0 H 45.333 V 45.345 H 0 Z"
         transform="matrix(1.7530173,1.5967709e-6,-1.9900427e-7,-1.7524654,144.73333,224.4)"
         id="path246" />
    </clipPath>
    <clipPath
       clipPathUnits="userSpaceOnUse"
       id="clipPath247">
      <path
         d="M 0,45.345 V -0.61591 H 45.961 V 45.345"
         transform="translate(1.9014834e-6)"
         clip-rule="evenodd"
         id="path247" />
    </clipPath>
    <clipPath
       clipPathUnits="userSpaceOnUse"
       id="clipPath248">
      <path
         d="M 0,0 H 45.333 V 45.345 H 0 Z"
         transform="matrix(1.7530173,1.5967709e-6,-1.9900427e-7,-1.7524654,144.73333,224.4)"
         id="path248" />
    </clipPath>
    <clipPath
       clipPathUnits="userSpaceOnUse"
       id="clipPath249">
      <path
         d="M 0,45.345 V -0.61591 H 45.961 V 45.345"
         transform="translate(1.9014834e-6)"
         clip-rule="evenodd"
         id="path249" />
    </clipPath>
    <clipPath
       clipPathUnits="userSpaceOnUse"
       id="clipPath250">
      <path
         d="M 0,0 H 45.333 V 45.345 H 0 Z"
         transform="matrix(1.7530173,1.5967709e-6,-1.9900427e-7,-1.7524654,144.73333,224.4)"
         id="path250" />
    </clipPath>
    <clipPath
       clipPathUnits="userSpaceOnUse"
       id="clipPath251">
      <path
         d="M 0,45.345 V -0.61591 H 45.961 V 45.345"
         transform="translate(1.9014834e-6)"
         clip-rule="evenodd"
         id="path251" />
    </clipPath>
    <clipPath
       clipPathUnits="userSpaceOnUse"
       id="clipPath252">
      <path
         d="M 0,0 H 45.333 V 45.345 H 0 Z"
         transform="matrix(1.7530173,1.5967709e-6,-1.9900427e-7,-1.7524654,144.73333,224.4)"
         id="path252" />
    </clipPath>
    <clipPath
       clipPathUnits="userSpaceOnUse"
       id="clipPath253">
      <path
         d="M 0,45.345 V -0.61591 H 45.961 V 45.345"
         transform="translate(1.9014834e-6)"
         clip-rule="evenodd"
         id="path253" />
    </clipPath>
    <clipPath
       clipPathUnits="userSpaceOnUse"
       id="clipPath254">
      <path
         d="M 0,0 H 45.333 V 45.345 H 0 Z"
         transform="matrix(1.7530173,1.5967709e-6,-1.9900427e-7,-1.7524654,144.73333,224.4)"
         id="path254" />
    </clipPath>
    <clipPath
       clipPathUnits="userSpaceOnUse"
       id="clipPath255">
      <path
         d="M 0,45.345 V -0.61591 H 45.961 V 45.345"
         transform="translate(1.9014834e-6)"
         clip-rule="evenodd"
         id="path255" />
    </clipPath>
    <clipPath
       clipPathUnits="userSpaceOnUse"
       id="clipPath256">
      <path
         d="M 0,0 H 45.333 V 45.345 H 0 Z"
         transform="matrix(1.7530173,1.5967709e-6,-1.9900427e-7,-1.7524654,144.73333,224.4)"
         id="path256" />
    </clipPath>
    <clipPath
       clipPathUnits="userSpaceOnUse"
       id="clipPath257">
      <path
         d="M 0,45.345 V -0.61591 H 45.961 V 45.345"
         transform="translate(1.9014834e-6)"
         clip-rule="evenodd"
         id="path257" />
    </clipPath>
    <clipPath
       clipPathUnits="userSpaceOnUse"
       id="clipPath258">
      <path
         d="M 0,0 H 45.333 V 45.345 H 0 Z"
         transform="matrix(1.7530173,1.5967709e-6,-1.9900427e-7,-1.7524654,144.73333,224.4)"
         id="path258" />
    </clipPath>
    <clipPath
       clipPathUnits="userSpaceOnUse"
       id="clipPath302">
      <path
         d="M -7.629e-6,3.0518e-4 H 595.19999 V 841.92031 H -7.629e-6 Z"
         transform="matrix(1.3333333,0,0,-1.3333333,0,1122.56)"
         clip-rule="evenodd"
         id="path302" />
    </clipPath>
  </defs>
  <g
     id="g1"
     transform="translate(-139.13452,-155.4322)">
    <g
       id="g302"
       clip-path="url(#clipPath302)"
       transform="translate(-5.5988037,10.497756)">
      <g
         clip-path="url(#clipPath174)"
         id="g259">
        <path
           d="m 0,22.74 v 0 C 0,10.198 10.138,-0.015125 22.68,-0.015125 35.297,-0.015125 45.435,10.198 45.435,22.74 45.435,35.357 35.297,45.42 22.68,45.42 10.138,45.42 0,35.357 0,22.74 Z"
           style="fill:#df8042;fill-opacity:1;fill-rule:nonzero;stroke:none"
           transform="matrix(1.7530173,1.5967709e-6,-1.9900427e-7,-1.7524654,144.73333,224.4)"
           clip-path="url(#clipPath173)"
           id="path259" />
      </g>
      <g
         clip-path="url(#clipPath176)"
         id="g260">
        <path
           d="m 12.016,10.574 v 0 c 0,0 3.079,-4.2057 8.486,6.383 0,0 -8.411,-3.304 -8.486,-6.383 z"
           style="fill:#fefefe;fill-opacity:1;fill-rule:nonzero;stroke:none"
           transform="matrix(1.7530173,1.5967709e-6,-1.9900427e-7,-1.7524654,144.73333,224.4)"
           clip-path="url(#clipPath175)"
           id="path260" />
      </g>
      <g
         clip-path="url(#clipPath178)"
         id="g261">
        <path
           d="m 17.874,14.855 v 0 c 0,0 2.478,2.703 6.909,5.407 -4.206,-2.929 -6.459,-5.783 -6.459,-5.783 z"
           style="fill:#fefefe;fill-opacity:1;fill-rule:nonzero;stroke:none"
           transform="matrix(1.7530173,1.5967709e-6,-1.9900427e-7,-1.7524654,144.73333,224.4)"
           clip-path="url(#clipPath177)"
           id="path261" />
      </g>
      <g
         clip-path="url(#clipPath180)"
         id="g262">
        <path
           d="m 13.217,12.451 v 0 c 0,0 -5.0312,-1.201 -2.252,10.364 0,0 4.205,-7.96 2.252,-10.364 z"
           style="fill:#fefefe;fill-opacity:1;fill-rule:nonzero;stroke:none"
           transform="matrix(1.7530173,1.5967709e-6,-1.9900427e-7,-1.7524654,144.73333,224.4)"
           clip-path="url(#clipPath179)"
           id="path262" />
      </g>
      <g
         clip-path="url(#clipPath182)"
         id="g263">
        <path
           d="m 11.565,19.511 v 0 c 0,0 -0.15,3.68 -1.8021,8.561 1.3521,-4.957 1.2021,-8.561 1.2021,-8.561 z"
           style="fill:#fefefe;fill-opacity:1;fill-rule:nonzero;stroke:none"
           transform="matrix(1.7530173,1.5967709e-6,-1.9900427e-7,-1.7524654,144.73333,224.4)"
           clip-path="url(#clipPath181)"
           id="path263" />
      </g>
      <g
         clip-path="url(#clipPath184)"
         id="g264">
        <path
           d="m 14.269,17.108 v 0 c 0,0 2.779,-3.755 7.66,5.707 0,0 -7.51,-2.854 -7.66,-5.707 z"
           style="fill:#fefefe;fill-opacity:1;fill-rule:nonzero;stroke:none"
           transform="matrix(1.7530173,1.5967709e-6,-1.9900427e-7,-1.7524654,144.73333,224.4)"
           clip-path="url(#clipPath183)"
           id="path264" />
      </g>
      <g
         clip-path="url(#clipPath186)"
         id="g265">
        <path
           d="m 19.601,20.938 v 0 c 0,0 2.253,2.403 6.233,4.806 -3.755,-2.629 -5.782,-5.182 -5.782,-5.182 z"
           style="fill:#fefefe;fill-opacity:1;fill-rule:nonzero;stroke:none"
           transform="matrix(1.7530173,1.5967709e-6,-1.9900427e-7,-1.7524654,144.73333,224.4)"
           clip-path="url(#clipPath185)"
           id="path265" />
      </g>
      <g
         clip-path="url(#clipPath188)"
         id="g266">
        <path
           d="m 15.546,18.309 v 0 c 0,0 -4.581,-0.976 -1.953,9.388 0,0 3.755,-7.21 1.953,-9.388 z"
           style="fill:#fefefe;fill-opacity:1;fill-rule:nonzero;stroke:none"
           transform="matrix(1.7530173,1.5967709e-6,-1.9900427e-7,-1.7524654,144.73333,224.4)"
           clip-path="url(#clipPath187)"
           id="path266" />
      </g>
      <g
         clip-path="url(#clipPath190)"
         id="g267">
        <path
           d="m 14.119,24.693 v 0 c 0,0 -0.075,3.304 -1.502,7.735 1.126,-4.431 0.976,-7.735 0.976,-7.735 z"
           style="fill:#fefefe;fill-opacity:1;fill-rule:nonzero;stroke:none"
           transform="matrix(1.7530173,1.5967709e-6,-1.9900427e-7,-1.7524654,144.73333,224.4)"
           clip-path="url(#clipPath189)"
           id="path267" />
      </g>
      <g
         clip-path="url(#clipPath192)"
         id="g268">
        <path
           d="m 16.672,22.815 v 0 c 0,0 2.328,-3.454 6.984,4.806 0,0 -6.759,-2.253 -6.984,-4.806 z"
           style="fill:#fefefe;fill-opacity:1;fill-rule:nonzero;stroke:none"
           transform="matrix(1.7530173,1.5967709e-6,-1.9900427e-7,-1.7524654,144.73333,224.4)"
           clip-path="url(#clipPath191)"
           id="path268" />
      </g>
      <g
         clip-path="url(#clipPath194)"
         id="g269">
        <path
           d="m 21.554,26.044 v 0 c 0,0 2.102,2.103 5.707,4.056 -3.455,-2.178 -5.332,-4.356 -5.332,-4.356 z"
           style="fill:#fefefe;fill-opacity:1;fill-rule:nonzero;stroke:none"
           transform="matrix(1.7530173,1.5967709e-6,-1.9900427e-7,-1.7524654,144.73333,224.4)"
           clip-path="url(#clipPath193)"
           id="path269" />
      </g>
      <g
         clip-path="url(#clipPath196)"
         id="g270">
        <path
           d="m 17.723,24.317 v 0 c 0,0 -4.13,-0.751 -1.426,8.336 0,0 3.079,-6.534 1.426,-8.336 z"
           style="fill:#fefefe;fill-opacity:1;fill-rule:nonzero;stroke:none"
           transform="matrix(1.7530173,1.5967709e-6,-1.9900427e-7,-1.7524654,144.73333,224.4)"
           clip-path="url(#clipPath195)"
           id="path270" />
      </g>
      <g
         clip-path="url(#clipPath198)"
         id="g271">
        <path
           d="m 16.672,30.025 v 0 c 0,0 0.075,2.928 -1.051,6.909 0.826,-4.056 0.525,-6.909 0.525,-6.909 z"
           style="fill:#fefefe;fill-opacity:1;fill-rule:nonzero;stroke:none"
           transform="matrix(1.7530173,1.5967709e-6,-1.9900427e-7,-1.7524654,144.73333,224.4)"
           clip-path="url(#clipPath197)"
           id="path271" />
      </g>
      <g
         clip-path="url(#clipPath200)"
         id="g272">
        <path
           d="m 19.751,28.297 v 0 c 0,0 2.103,-3.004 5.933,4.356 0,0 -5.858,-2.178 -5.933,-4.356 z"
           style="fill:#fefefe;fill-opacity:1;fill-rule:nonzero;stroke:none"
           transform="matrix(1.7530173,1.5967709e-6,-1.9900427e-7,-1.7524654,144.73333,224.4)"
           clip-path="url(#clipPath199)"
           id="path272" />
      </g>
      <g
         clip-path="url(#clipPath202)"
         id="g273">
        <path
           d="m 23.882,31.226 v 0 c 0,0 1.727,1.878 4.881,3.68 -3.004,-1.953 -4.581,-3.98 -4.581,-3.98 z"
           style="fill:#fefefe;fill-opacity:1;fill-rule:nonzero;stroke:none"
           transform="matrix(1.7530173,1.5967709e-6,-1.9900427e-7,-1.7524654,144.73333,224.4)"
           clip-path="url(#clipPath201)"
           id="path273" />
      </g>
      <g
         clip-path="url(#clipPath204)"
         id="g274">
        <path
           d="m 20.577,29.574 v 0 c 0,0 -3.529,-0.751 -1.427,7.285 0,0 2.854,-5.558 1.427,-7.285 z"
           style="fill:#fefefe;fill-opacity:1;fill-rule:nonzero;stroke:none"
           transform="matrix(1.7530173,1.5967709e-6,-1.9900427e-7,-1.7524654,144.73333,224.4)"
           clip-path="url(#clipPath203)"
           id="path274" />
      </g>
      <g
         clip-path="url(#clipPath206)"
         id="g275">
        <path
           d="m 19.526,34.606 v 0 c 0,0 -0.075,2.553 -1.127,6.008 0.826,-3.53 0.676,-6.083 0.676,-6.083 z"
           style="fill:#fefefe;fill-opacity:1;fill-rule:nonzero;stroke:none"
           transform="matrix(1.7530173,1.5967709e-6,-1.9900427e-7,-1.7524654,144.73333,224.4)"
           clip-path="url(#clipPath205)"
           id="path275" />
      </g>
      <g
         clip-path="url(#clipPath208)"
         id="g276">
        <path
           d="m 22.83,33.104 v 0 c 0,0 1.652,-2.629 5.407,3.454 0,0 -5.182,-1.577 -5.407,-3.454 z"
           style="fill:#fefefe;fill-opacity:1;fill-rule:nonzero;stroke:none"
           transform="matrix(1.7530173,1.5967709e-6,-1.9900427e-7,-1.7524654,144.73333,224.4)"
           clip-path="url(#clipPath207)"
           id="path276" />
      </g>
      <g
         clip-path="url(#clipPath210)"
         id="g277">
        <path
           d="m 26.585,35.432 v 0 c 0,0 1.577,1.502 4.431,2.854 -2.704,-1.578 -4.206,-3.155 -4.206,-3.155 z"
           style="fill:#fefefe;fill-opacity:1;fill-rule:nonzero;stroke:none"
           transform="matrix(1.7530173,1.5967709e-6,-1.9900427e-7,-1.7524654,144.73333,224.4)"
           clip-path="url(#clipPath209)"
           id="path277" />
      </g>
      <g
         clip-path="url(#clipPath212)"
         id="g278">
        <path
           d="m 23.656,34.155 v 0 c 0,0 -3.079,-0.375 -0.826,6.384 0,0 2.103,-4.957 0.826,-6.384 z"
           style="fill:#fefefe;fill-opacity:1;fill-rule:nonzero;stroke:none"
           transform="matrix(1.7530173,1.5967709e-6,-1.9900427e-7,-1.7524654,144.73333,224.4)"
           clip-path="url(#clipPath211)"
           id="path278" />
      </g>
      <g
         clip-path="url(#clipPath214)"
         id="g279">
        <path
           d="m 23.055,38.511 v 0 c 0,0 0.076,2.178 -0.6,5.257 0.45,-3.079 0.225,-5.257 0.225,-5.257 z"
           style="fill:#fefefe;fill-opacity:1;fill-rule:nonzero;stroke:none"
           transform="matrix(1.7530173,1.5967709e-6,-1.9900427e-7,-1.7524654,144.73333,224.4)"
           clip-path="url(#clipPath213)"
           id="path279" />
      </g>
      <g
         clip-path="url(#clipPath216)"
         id="g280">
        <path
           d="m 26.21,37.835 v 0 l 0.6,0.375 C 16.822,25.894 12.466,11.55 10.739,0.51057 H 9.3874 C 11.34,11.7 15.996,26.195 26.21,37.835 Z"
           style="fill:#fefefe;fill-opacity:1;fill-rule:nonzero;stroke:none"
           transform="matrix(1.7530173,1.5967709e-6,-1.9900427e-7,-1.7524654,144.73333,224.4)"
           clip-path="url(#clipPath215)"
           id="path280" />
      </g>
      <g
         clip-path="url(#clipPath218)"
         id="g281">
        <path
           d="m 18.249,4.7912 v 0 c 0,0 1.052,-3.4545 6.909,2.253 0,0 -6.158,-0.3004 -6.909,-2.253 z"
           style="fill:#fefefe;fill-opacity:1;fill-rule:nonzero;stroke:none"
           transform="matrix(1.7530173,1.5967709e-6,-1.9900427e-7,-1.7524654,144.73333,224.4)"
           clip-path="url(#clipPath217)"
           id="path281" />
      </g>
      <g
         clip-path="url(#clipPath220)"
         id="g282">
        <path
           d="m 23.055,6.2181 v 0 c 0,0 2.178,1.2016 5.708,1.9526 C 25.308,7.1944 23.206,5.8426 23.206,5.8426 Z"
           style="fill:#fefefe;fill-opacity:1;fill-rule:nonzero;stroke:none"
           transform="matrix(1.7530173,1.5967709e-6,-1.9900427e-7,-1.7524654,144.73333,224.4)"
           clip-path="url(#clipPath219)"
           id="path282" />
      </g>
      <g
         clip-path="url(#clipPath222)"
         id="g283">
        <path
           d="m 19.451,5.6924 v 0 c 0,0 -3.605,0.3755 0.901,7.2846 0,0 0.901,-6.1581 -0.901,-7.2846 z"
           style="fill:#fefefe;fill-opacity:1;fill-rule:nonzero;stroke:none"
           transform="matrix(1.7530173,1.5967709e-6,-1.9900427e-7,-1.7524654,144.73333,224.4)"
           clip-path="url(#clipPath221)"
           id="path283" />
      </g>
      <g
         clip-path="url(#clipPath224)"
         id="g284">
        <path
           d="m 19.976,10.724 v 0 c 0,0 0.751,2.403 0.827,5.933 -0.301,-3.53 -1.277,-5.783 -1.277,-5.783 z"
           style="fill:#fefefe;fill-opacity:1;fill-rule:nonzero;stroke:none"
           transform="matrix(1.7530173,1.5967709e-6,-1.9900427e-7,-1.7524654,144.73333,224.4)"
           clip-path="url(#clipPath223)"
           id="path284" />
      </g>
      <g
         clip-path="url(#clipPath226)"
         id="g285">
        <path
           d="m 22.38,9.4474 v 0 c 0,0 0.3,-3.2293 6.533,0.7506 0,0 -5.557,0.902 -6.533,-0.7506 z"
           style="fill:#fefefe;fill-opacity:1;fill-rule:nonzero;stroke:none"
           transform="matrix(1.7530173,1.5967709e-6,-1.9900427e-7,-1.7524654,144.73333,224.4)"
           clip-path="url(#clipPath225)"
           id="path285" />
      </g>
      <g
         clip-path="url(#clipPath228)"
         id="g286">
        <path
           d="m 26.886,9.898 v 0 c 0,0 2.177,0.676 5.332,0.676 -3.155,-0.225 -5.257,-1.0515 -5.257,-1.0515 z"
           style="fill:#fefefe;fill-opacity:1;fill-rule:nonzero;stroke:none"
           transform="matrix(1.7530173,1.5967709e-6,-1.9900427e-7,-1.7524654,144.73333,224.4)"
           clip-path="url(#clipPath227)"
           id="path286" />
      </g>
      <g
         clip-path="url(#clipPath230)"
         id="g287">
        <path
           d="m 23.506,9.7478 v 0 c 0,0 -3.079,0.9762 2.103,6.2332 0,0 -0.301,-5.557 -2.103,-6.2332 z"
           style="fill:#fefefe;fill-opacity:1;fill-rule:nonzero;stroke:none"
           transform="matrix(1.7530173,1.5967709e-6,-1.9900427e-7,-1.7524654,144.73333,224.4)"
           clip-path="url(#clipPath229)"
           id="path287" />
      </g>
      <g
         clip-path="url(#clipPath232)"
         id="g288">
        <path
           d="m 24.858,14.028 v 0 c 0,0 1.126,2.028 1.802,5.182 -0.901,-3.079 -2.103,-4.956 -2.103,-4.956 z"
           style="fill:#fefefe;fill-opacity:1;fill-rule:nonzero;stroke:none"
           transform="matrix(1.7530173,1.5967709e-6,-1.9900427e-7,-1.7524654,144.73333,224.4)"
           clip-path="url(#clipPath231)"
           id="path288" />
      </g>
      <g
         clip-path="url(#clipPath234)"
         id="g289">
        <path
           d="m 26.135,12.376 v 0 c 0,0 -0.076,-2.8535 5.857,-0.075 0,0 -4.731,1.427 -5.857,0.075 z"
           style="fill:#fefefe;fill-opacity:1;fill-rule:nonzero;stroke:none"
           transform="matrix(1.7530173,1.5967709e-6,-1.9900427e-7,-1.7524654,144.73333,224.4)"
           clip-path="url(#clipPath233)"
           id="path289" />
      </g>
      <g
         clip-path="url(#clipPath236)"
         id="g290">
        <path
           d="m 30.19,12.226 v 0 c 0,0 1.953,0.376 4.806,0 -2.853,0.15 -4.731,-0.3 -4.731,-0.3 z"
           style="fill:#fefefe;fill-opacity:1;fill-rule:nonzero;stroke:none"
           transform="matrix(1.7530173,1.5967709e-6,-1.9900427e-7,-1.7524654,144.73333,224.4)"
           clip-path="url(#clipPath235)"
           id="path290" />
      </g>
      <g
         clip-path="url(#clipPath238)"
         id="g291">
        <path
           d="m 27.336,12.827 v 0 c 0,0 -2.628,1.201 2.554,5.257 0,0 -0.902,-4.882 -2.554,-5.257 z"
           style="fill:#fefefe;fill-opacity:1;fill-rule:nonzero;stroke:none"
           transform="matrix(1.7530173,1.5967709e-6,-1.9900427e-7,-1.7524654,144.73333,224.4)"
           clip-path="url(#clipPath237)"
           id="path291" />
      </g>
      <g
         clip-path="url(#clipPath240)"
         id="g292">
        <path
           d="m 28.988,16.432 v 0 c 0,0 1.202,1.652 2.178,4.28 -1.126,-2.553 -2.403,-4.055 -2.403,-4.055 z"
           style="fill:#fefefe;fill-opacity:1;fill-rule:nonzero;stroke:none"
           transform="matrix(1.7530173,1.5967709e-6,-1.9900427e-7,-1.7524654,144.73333,224.4)"
           clip-path="url(#clipPath239)"
           id="path292" />
      </g>
      <g
         clip-path="url(#clipPath242)"
         id="g293">
        <path
           d="m 29.965,14.629 v 0 c 0,0 -0.301,-2.478 5.106,-0.601 0,0 -3.98,1.653 -5.106,0.601 z"
           style="fill:#fefefe;fill-opacity:1;fill-rule:nonzero;stroke:none"
           transform="matrix(1.7530173,1.5967709e-6,-1.9900427e-7,-1.7524654,144.73333,224.4)"
           clip-path="url(#clipPath241)"
           id="path293" />
      </g>
      <g
         clip-path="url(#clipPath244)"
         id="g294">
        <path
           d="m 33.494,14.179 v 0 c 0,0 1.728,0.075 4.206,-0.526 -2.478,0.451 -4.206,0.225 -4.206,0.225 z"
           style="fill:#fefefe;fill-opacity:1;fill-rule:nonzero;stroke:none"
           transform="matrix(1.7530173,1.5967709e-6,-1.9900427e-7,-1.7524654,144.73333,224.4)"
           clip-path="url(#clipPath243)"
           id="path294" />
      </g>
      <g
         clip-path="url(#clipPath246)"
         id="g295">
        <path
           d="m 31.016,14.93 v 0 c 0,0 -2.103,1.276 2.779,4.28 0,0 -1.277,-4.13 -2.779,-4.28 z"
           style="fill:#fefefe;fill-opacity:1;fill-rule:nonzero;stroke:none"
           transform="matrix(1.7530173,1.5967709e-6,-1.9900427e-7,-1.7524654,144.73333,224.4)"
           clip-path="url(#clipPath245)"
           id="path295" />
      </g>
      <g
         clip-path="url(#clipPath248)"
         id="g296">
        <path
           d="m 32.894,17.934 v 0 c 0,0 1.201,1.276 2.328,3.529 -1.277,-2.178 -2.554,-3.379 -2.554,-3.379 z"
           style="fill:#fefefe;fill-opacity:1;fill-rule:nonzero;stroke:none"
           transform="matrix(1.7530173,1.5967709e-6,-1.9900427e-7,-1.7524654,144.73333,224.4)"
           clip-path="url(#clipPath247)"
           id="path296" />
      </g>
      <g
         clip-path="url(#clipPath250)"
         id="g297">
        <path
           d="m 34.546,16.281 v 0 c 0,0 -0.301,-1.502 3.154,-0.6 0,0 -2.403,1.201 -3.154,0.6 z"
           style="fill:#fefefe;fill-opacity:1;fill-rule:nonzero;stroke:none"
           transform="matrix(1.7530173,1.5967709e-6,-1.9900427e-7,-1.7524654,144.73333,224.4)"
           clip-path="url(#clipPath249)"
           id="path297" />
      </g>
      <g
         clip-path="url(#clipPath252)"
         id="g298">
        <path
           d="m 36.724,15.831 v 0 c 0,0 1.051,0 2.553,-0.451 -1.502,0.376 -2.553,0.301 -2.553,0.301 z"
           style="fill:#fefefe;fill-opacity:1;fill-rule:nonzero;stroke:none"
           transform="matrix(1.7530173,1.5967709e-6,-1.9900427e-7,-1.7524654,144.73333,224.4)"
           clip-path="url(#clipPath251)"
           id="path298" />
      </g>
      <g
         clip-path="url(#clipPath254)"
         id="g299">
        <path
           d="m 35.222,16.357 v 0 c 0,0 -1.277,0.901 1.802,2.628 0,0 -0.901,-2.553 -1.802,-2.628 z"
           style="fill:#fefefe;fill-opacity:1;fill-rule:nonzero;stroke:none"
           transform="matrix(1.7530173,1.5967709e-6,-1.9900427e-7,-1.7524654,144.73333,224.4)"
           clip-path="url(#clipPath253)"
           id="path299" />
      </g>
      <g
         clip-path="url(#clipPath256)"
         id="g300">
        <path
           d="m 36.423,18.159 v 0 c 0,0 0.826,0.751 1.577,2.103 -0.826,-1.277 -1.652,-1.953 -1.652,-1.953 z"
           style="fill:#fefefe;fill-opacity:1;fill-rule:nonzero;stroke:none"
           transform="matrix(1.7530173,1.5967709e-6,-1.9900427e-7,-1.7524654,144.73333,224.4)"
           clip-path="url(#clipPath255)"
           id="path300" />
      </g>
      <g
         clip-path="url(#clipPath258)"
         id="g301">
        <path
           d="m 39.052,17.032 v 0 C 25.384,15.23 19,4.3406 17.198,0.51057 H 15.546 C 16.522,2.4632 23.581,15.906 39.052,17.032 Z"
           style="fill:#fefefe;fill-opacity:1;fill-rule:nonzero;stroke:none"
           transform="matrix(1.7530173,1.5967709e-6,-1.9900427e-7,-1.7524654,144.73333,224.4)"
           clip-path="url(#clipPath257)"
           id="path301" />
      </g>
    </g>
  </g>
</svg>
