<?xml version="1.0" encoding="UTF-8" standalone="no"?>
<!-- Created with Inkscape (http://www.inkscape.org/) -->

<svg
   version="1.1"
   id="svg1"
   width="79.469513"
   height="79.465637"
   viewBox="0 0 79.469513 79.46564"
   xmlns="http://www.w3.org/2000/svg"
   xmlns:svg="http://www.w3.org/2000/svg">
  <defs
     id="defs1">
    <clipPath
       clipPathUnits="userSpaceOnUse"
       id="clipPath389">
      <path
         d="M 0,45.345 V -0.61591 H 45.961 V 45.345"
         transform="translate(-1.9014834e-6)"
         clip-rule="evenodd"
         id="path389" />
    </clipPath>
    <clipPath
       clipPathUnits="userSpaceOnUse"
       id="clipPath390">
      <path
         d="M 0,0 H 45.333 V 45.345 H 0 Z"
         transform="matrix(1.7530173,1.5967709e-6,0,-1.7524654,487.06667,396.93333)"
         id="path390" />
    </clipPath>
    <clipPath
       clipPathUnits="userSpaceOnUse"
       id="clipPath391">
      <path
         d="M 12.692,36.859 V 7.645 h 20.577 v 29.214"
         transform="translate(-1.9014834e-6)"
         id="path391" />
    </clipPath>
    <clipPath
       clipPathUnits="userSpaceOnUse"
       id="clipPath392">
      <path
         d="M 0,0 H 45.333 V 45.345 H 0 Z"
         transform="matrix(1.7530173,1.5967709e-6,0,-1.7524654,487.06667,396.93333)"
         id="path392" />
    </clipPath>
    <clipPath
       clipPathUnits="userSpaceOnUse"
       id="clipPath395">
      <path
         d="M 0,2.4414e-4 H 595.2 V 841.92024 H 0 Z"
         transform="matrix(1.3333333,0,0,-1.3333333,0,1122.56)"
         clip-rule="evenodd"
         id="path395" />
    </clipPath>
  </defs>
  <g
     id="g1"
     transform="translate(-487.06668,-317.46779)">
    <g
       id="g389">
      <g
         id="g395"
         clip-path="url(#clipPath395)">
        <g
           clip-path="url(#clipPath390)"
           id="g393">
          <path
             d="m 45.435,22.74 v 0 C 45.435,10.198 35.297,-0.015125 22.68,-0.015125 10.138,-0.015125 0,10.198 0,22.74 c 0,12.617 10.138,22.68 22.68,22.68 12.617,0 22.755,-10.063 22.755,-22.68 z"
             style="fill:#6d4325;fill-opacity:1;fill-rule:nonzero;stroke:none"
             transform="matrix(1.7530173,1.5967709e-6,0,-1.7524654,487.06667,396.93333)"
             clip-path="url(#clipPath389)"
             id="path393" />
        </g>
        <g
           clip-path="url(#clipPath392)"
           id="g394">
          <path
             d="m 18.474,29.874 v 0 c 0.151,-0.826 0.151,-1.577 -0.15,-2.328 -1.352,-1.877 -2.328,-4.431 -2.703,-7.284 -0.376,0.751 -0.902,1.802 -0.977,2.178 -1.126,3.454 0,6.383 3.23,7.735 0.075,0.075 0.225,0.075 0.375,0 0.15,-0.075 0.225,-0.15 0.225,-0.301 z m 2.629,2.028 v 0 c 0.901,0 0.375,-3.454 0.3,-3.905 -0.375,-1.277 -1.051,-2.103 -1.652,-3.229 -0.676,-1.502 -1.277,-3.079 -1.802,-4.431 0,-0.075 -0.15,-0.15 -0.301,-0.15 -0.15,0 -0.3,0.15 -0.3,0.225 0,0.075 0,0.075 0,0.15 0.075,1.051 0.526,2.704 1.202,4.281 0.6,1.427 1.351,2.253 1.577,3.379 0.15,0.826 -0.376,2.704 -0.151,3.38 0.076,0.3 0.676,0.3 1.127,0.3 z M 20.427,8.396 v 0 c 1.202,-0.1502 2.403,-0.1502 3.605,-0.1502 1.276,0 2.478,0 3.68,0.1502 0.751,0.0751 1.351,0.3755 1.877,0.9763 1.878,2.4787 3.079,4.1307 3.079,8.1857 0,4.506 -1.427,8.486 -3.605,10.89 -0.976,1.201 -0.525,3.98 0.451,4.881 0.3,0.3 2.178,0.751 2.328,1.802 0,0.226 0.075,0.676 -0.3,1.052 -1.427,1.502 -4.131,0.3 -5.708,-0.226 -1.051,-0.3 -2.103,-0.901 -3.079,-1.276 -0.676,-0.226 -1.277,-0.601 -1.952,-0.676 -0.827,-0.075 -1.502,0.075 -2.103,0.225 -0.075,0 -0.15,0.075 -0.15,0.225 0,0.076 0,0.151 0.075,0.226 0.225,0.075 0.375,0.225 0.525,0.225 0.977,0.451 2.854,0.601 3.83,0.601 0.977,0.075 1.427,0.15 1.277,0.225 -0.15,0.075 -0.451,0.075 -0.826,0.075 -1.877,0.15 -5.632,-0.15 -6.233,-1.276 -0.075,-0.151 -0.15,-0.376 -0.15,-0.451 0,-0.3 0.075,-0.751 0.3,-1.202 0.075,-0.3 0.225,-0.6 0.375,-0.901 -3.454,-1.051 -4.881,-3.304 -4.956,-6.759 -0.075,-0.901 0.075,-1.427 0.3,-2.328 0.226,-1.051 0.451,-1.577 0.901,-2.478 0.151,-0.376 1.052,-2.253 1.502,-2.704 v -0.15 c 0,-4.055 1.202,-5.707 3.08,-8.1857 C 19,8.7715 19.676,8.4711 20.427,8.396 Z"
             style="fill:#fefefe;fill-opacity:1;fill-rule:nonzero;stroke:none"
             transform="matrix(1.7530173,1.5967709e-6,0,-1.7524654,487.06667,396.93333)"
             clip-path="url(#clipPath391)"
             id="path394" />
        </g>
      </g>
    </g>
  </g>
</svg>
