<?xml version="1.0" encoding="UTF-8" standalone="no"?>
<!-- Created with Inkscape (http://www.inkscape.org/) -->

<svg
   version="1.1"
   id="svg1"
   width="79.467529"
   height="79.317688"
   viewBox="0 0 79.46753 79.317691"
   xmlns="http://www.w3.org/2000/svg"
   xmlns:svg="http://www.w3.org/2000/svg">
  <defs
     id="defs1">
    <clipPath
       clipPathUnits="userSpaceOnUse"
       id="clipPath556">
      <path
         d="M 0,41.043 V -0.59718 H 41.64 V 41.043"
         clip-rule="evenodd"
         id="path556" />
    </clipPath>
    <clipPath
       clipPathUnits="userSpaceOnUse"
       id="clipPath557">
      <path
         d="M 0,0 H 41.04 V 41.043 H 0 Z"
         transform="matrix(1.936343,0,0,-1.9362326,396.4,747.73333)"
         id="path557" />
    </clipPath>
    <clipPath
       clipPathUnits="userSpaceOnUse"
       id="clipPath558">
      <path
         d="M 0,41.043 V -0.59718 H 41.64 V 41.043"
         clip-rule="evenodd"
         id="path558" />
    </clipPath>
    <clipPath
       clipPathUnits="userSpaceOnUse"
       id="clipPath559">
      <path
         d="M 0,0 H 41.04 V 41.043 H 0 Z"
         transform="matrix(1.936343,0,0,-1.9362326,396.4,747.73333)"
         id="path559" />
    </clipPath>
    <clipPath
       clipPathUnits="userSpaceOnUse"
       id="clipPath562">
      <path
         d="M -3.0518e-5,1.2207e-4 H 595.19997 V 841.92012 H -3.0518e-5 Z"
         transform="matrix(1.3333333,0,0,-1.3333333,0,1122.56)"
         clip-rule="evenodd"
         id="path562" />
    </clipPath>
  </defs>
  <g
     id="g1"
     transform="translate(-396.39999,-668.2645)">
    <g
       id="g556">
      <g
         id="g562"
         clip-path="url(#clipPath562)">
        <g
           clip-path="url(#clipPath557)"
           id="g560">
          <path
             d="m 41.04,20.561 v 0 C 41.04,9.2314 31.812,0.078056 20.482,0.078056 9.1533,0.078056 0,9.2314 0,20.561 0,31.89 9.1533,41.043 20.482,41.043 c 11.33,0 20.558,-9.153 20.558,-20.482 z"
             style="fill:#68cee3;fill-opacity:1;fill-rule:nonzero;stroke:none"
             transform="matrix(1.936343,0,0,-1.9362326,396.4,747.73333)"
             clip-path="url(#clipPath556)"
             id="path560" />
        </g>
        <g
           clip-path="url(#clipPath559)"
           id="g561">
          <path
             d="m 35.638,25.137 v 0 c -0.3,0.6 -0.825,0.826 -1.35,1.126 -0.301,0.15 -0.676,0.3 -0.826,0.45 -0.15,0.225 -0.3,0.6 -0.45,1.05 -0.3,0.675 -0.6,1.426 -1.35,2.026 -0.601,0.525 -1.351,0.675 -2.026,0.825 -0.525,0.075 -0.976,0.225 -1.351,0.375 -0.375,0.225 -0.75,0.526 -1.125,0.901 -0.675,0.6 -1.426,1.275 -2.401,1.5 -0.9,0.3 -1.876,0.075 -2.776,-0.15 -0.525,-0.075 -1.05,-0.225 -1.501,-0.225 -0.45,0 -0.975,0.15 -1.425,0.225 -0.975,0.225 -1.876,0.45 -2.851,0.15 -0.975,-0.225 -1.726,-0.9 -2.401,-1.5 -0.375,-0.375 -0.75,-0.676 -1.125,-0.901 -0.3,-0.15 -0.826,-0.3 -1.276,-0.375 -0.75,-0.15 -1.5004,-0.3 -2.1006,-0.825 -0.6752,-0.6 -1.0504,-1.351 -1.2755,-2.026 -0.225,-0.45 -0.3751,-0.825 -0.5252,-1.05 -0.15,-0.15 -0.4501,-0.3 -0.8253,-0.45 -0.4501,-0.3 -1.0503,-0.526 -1.3505,-1.126 -0.3751,-0.75 -0.225,-1.575 -0.075,-2.101 0.075,-0.225 0.075,-0.45 0.075,-0.6 0,0 0,0 0,0 -0.15,-1.35 0.2251,-2.701 1.2005,-3.976 0.8253,-1.126 1.8757,-2.176 2.9261,-3.076 0,0 0,-0.075 0,-0.075 0.9755,-0.826 2.1005,-1.876 3.2265,-2.701 0.45,-0.376 0.975,-0.676 1.425,-0.976 L 13.13,10.057 C 12.755,9.5315 12.755,8.9313 12.98,8.4061 13.28,7.8809 13.88,7.5808 14.555,7.5808 H 26.41 c 0.675,0 1.275,0.3001 1.575,0.8253 0.225,0.5252 0.225,1.1254 -0.15,1.6509 l -0.975,1.575 c 0.45,0.3 0.975,0.6 1.425,0.976 1.126,0.825 2.251,1.8 3.227,2.701 0,0 0,0.075 0,0.075 1.05,0.9 2.175,1.95 3.001,3.076 0.9,1.275 1.275,2.626 1.125,3.976 0,0 0,0 0,0 0,0.15 0.075,0.375 0.075,0.6 0.15,0.526 0.375,1.351 -0.075,2.101 z m -27.9852,-0.3 v 0 c 0.3751,0.15 0.8253,0.45 1.1254,0.825 0.075,0.075 0.1501,0.15 0.2251,0.225 l 6.4527,-9.003 z m 5.2522,4.427 v 0 c 0.225,0.075 0.45,0.15 0.6,0.3 0.375,0.15 0.675,0.375 0.975,0.675 l 3.377,-12.905 z m 7.577,-12.38 v 0 l -0.9,14.556 c 0.3,-0.076 0.6,-0.076 0.9,-0.076 0,0 0,0 0,0 0.301,0 0.601,0 0.901,0.076 z m 6.003,13.355 v 0 c 0.3,-0.3 0.6,-0.525 0.975,-0.675 0.15,-0.15 0.375,-0.225 0.6,-0.3 L 23.108,17.334 Z M 25.509,16.884 v 0 l 6.453,9.003 c 0.075,-0.075 0.15,-0.15 0.225,-0.225 0.3,-0.375 0.75,-0.675 1.125,-0.825 z"
             style="fill:#fefefe;fill-opacity:1;fill-rule:nonzero;stroke:none"
             transform="matrix(1.936343,0,0,-1.9362326,396.4,747.73333)"
             clip-path="url(#clipPath558)"
             id="path561" />
        </g>
      </g>
    </g>
  </g>
</svg>
