<?xml version="1.0" encoding="UTF-8" standalone="no"?>
<!-- Created with Inkscape (http://www.inkscape.org/) -->

<svg
   version="1.1"
   id="svg1"
   width="79.469543"
   height="79.465637"
   viewBox="0 0 79.469544 79.46564"
   xmlns="http://www.w3.org/2000/svg"
   xmlns:svg="http://www.w3.org/2000/svg">
  <defs
     id="defs1">
    <clipPath
       clipPathUnits="userSpaceOnUse"
       id="clipPath370">
      <path
         d="M 0,45.345 V -0.61591 H 45.961 V 45.345"
         transform="translate(-1.9014834e-6)"
         clip-rule="evenodd"
         id="path370" />
    </clipPath>
    <clipPath
       clipPathUnits="userSpaceOnUse"
       id="clipPath371">
      <path
         d="M 0,0 H 45.333 V 45.345 H 0 Z"
         transform="matrix(1.7530173,1.5967709e-6,0,-1.7524654,316.86667,396.93333)"
         id="path371" />
    </clipPath>
    <clipPath
       clipPathUnits="userSpaceOnUse"
       id="clipPath372">
      <path
         d="M 0,45.345 V -0.61591 H 45.961 V 45.345"
         transform="translate(-1.9014834e-6)"
         clip-rule="evenodd"
         id="path372" />
    </clipPath>
    <clipPath
       clipPathUnits="userSpaceOnUse"
       id="clipPath373">
      <path
         d="M 0,0 H 45.333 V 45.345 H 0 Z"
         transform="matrix(1.7530173,1.5967709e-6,0,-1.7524654,316.86667,396.93333)"
         id="path373" />
    </clipPath>
    <clipPath
       clipPathUnits="userSpaceOnUse"
       id="clipPath374">
      <path
         d="M 0,45.345 V -0.61591 H 45.961 V 45.345"
         transform="translate(-1.9014834e-6)"
         clip-rule="evenodd"
         id="path374" />
    </clipPath>
    <clipPath
       clipPathUnits="userSpaceOnUse"
       id="clipPath375">
      <path
         d="M 0,0 H 45.333 V 45.345 H 0 Z"
         transform="matrix(1.7530173,1.5967709e-6,0,-1.7524654,316.86667,396.93333)"
         id="path375" />
    </clipPath>
    <clipPath
       clipPathUnits="userSpaceOnUse"
       id="clipPath376">
      <path
         d="M 0,45.345 V -0.61591 H 45.961 V 45.345"
         transform="translate(-1.9014834e-6)"
         clip-rule="evenodd"
         id="path376" />
    </clipPath>
    <clipPath
       clipPathUnits="userSpaceOnUse"
       id="clipPath377">
      <path
         d="M 0,0 H 45.333 V 45.345 H 0 Z"
         transform="matrix(1.7530173,1.5967709e-6,0,-1.7524654,316.86667,396.93333)"
         id="path377" />
    </clipPath>
    <clipPath
       clipPathUnits="userSpaceOnUse"
       id="clipPath378">
      <path
         d="M 0,45.345 V -0.61591 H 45.961 V 45.345"
         transform="translate(-1.9014834e-6)"
         clip-rule="evenodd"
         id="path378" />
    </clipPath>
    <clipPath
       clipPathUnits="userSpaceOnUse"
       id="clipPath379">
      <path
         d="M 0,0 H 45.333 V 45.345 H 0 Z"
         transform="matrix(1.7530173,1.5967709e-6,0,-1.7524654,316.86667,396.93333)"
         id="path379" />
    </clipPath>
    <clipPath
       clipPathUnits="userSpaceOnUse"
       id="clipPath380">
      <path
         d="M 0,45.345 V -0.61591 H 45.961 V 45.345"
         transform="translate(-1.9014834e-6)"
         clip-rule="evenodd"
         id="path380" />
    </clipPath>
    <clipPath
       clipPathUnits="userSpaceOnUse"
       id="clipPath381">
      <path
         d="M 0,0 H 45.333 V 45.345 H 0 Z"
         transform="matrix(1.7530173,1.5967709e-6,0,-1.7524654,316.86667,396.93333)"
         id="path381" />
    </clipPath>
    <clipPath
       clipPathUnits="userSpaceOnUse"
       id="clipPath388">
      <path
         d="M 0,2.4414e-4 H 595.2 V 841.92024 H 0 Z"
         transform="matrix(1.3333333,0,0,-1.3333333,0,1122.56)"
         clip-rule="evenodd"
         id="path388" />
    </clipPath>
  </defs>
  <g
     id="g1"
     transform="translate(-316.86667,-317.46779)">
    <g
       id="g370">
      <g
         id="g388"
         clip-path="url(#clipPath388)">
        <g
           clip-path="url(#clipPath371)"
           id="g382">
          <path
             d="m 22.68,-0.015125 v 0 C 10.138,-0.015125 0,10.198 0,22.74 0,35.357 10.138,45.42 22.68,45.42 35.297,45.42 45.435,35.357 45.435,22.74 45.435,10.198 35.297,-0.015125 22.68,-0.015125 Z"
             style="fill:#00a551;fill-opacity:1;fill-rule:nonzero;stroke:none"
             transform="matrix(1.7530173,1.5967709e-6,0,-1.7524654,316.86667,396.93333)"
             clip-path="url(#clipPath370)"
             id="path382" />
        </g>
        <g
           clip-path="url(#clipPath373)"
           id="g383">
          <path
             d="m 39.052,9.2972 v 0 c -0.075,0.1502 -0.226,0.3004 -0.376,0.4506 -0.075,0.0751 -0.15,0.1502 -0.225,0.1502 0.075,0 0.15,-0.0751 0.225,-0.1502 -0.526,0.7512 -1.502,1.8772 -2.628,2.9292 -3.079,2.553 -6.008,1.577 -9.313,0.45 -2.628,-0.901 -6.984,-2.027 -9.763,-2.103 -1.727,0 -4.731,0.526 -6.308,1.352 -0.601,0.301 -1.0513,0.676 -1.0513,0.676 0,-0.075 0.0751,-0.15 0.0751,-0.375 0.0751,-0.301 0.0751,-0.676 0.0751,-0.751 0,-1.277 0.4511,-2.6288 1.2021,-3.7553 0.675,-1.1265 1.727,-2.0277 2.928,-2.5534 1.427,-0.6008 3.455,-0.8261 6.159,-0.5257 2.328,0.3004 5.181,0.9763 8.636,2.3281 1.802,0.6759 3.68,1.2767 5.482,1.6522 1.652,0.3004 3.305,0.3755 4.656,0 h 0.601 c -0.075,0.1502 -0.15,0.3004 -0.3,0.3755 0,-0.0751 -0.075,-0.0751 -0.075,-0.1502 z M 14.419,6.2181 v 0 c -0.3,0.0751 -0.601,0.1502 -0.826,0.3004 -0.3,0.1502 -0.526,0.3755 -0.826,0.6008 v 0 c -0.225,0.3004 -0.376,0.5257 -0.526,0.8261 -0.15,0.3004 -0.225,0.6008 -0.3,0.9012 -0.075,0.3004 0,0.5257 0.075,0.8261 0.075,0.2253 0.15,0.4503 0.375,0.6003 v 0 c 0.151,0.151 0.376,0.301 0.601,0.376 0.301,0.075 0.526,0.075 0.826,0 0.601,-0.075 1.202,-0.451 1.652,-0.9012 0.451,-0.5257 0.751,-1.0514 0.827,-1.7273 0.075,-0.2253 0.075,-0.5257 0,-0.751 C 16.221,6.9691 16.071,6.7438 15.921,6.5936 H 15.846 C 15.696,6.4434 15.47,6.2932 15.245,6.2181 c -0.225,0 -0.526,0 -0.826,0 z m 5.633,-0.3004 v 0 c -0.226,-0.0751 -0.526,-0.0751 -0.827,0 -0.675,0.0751 -1.276,0.4506 -1.727,0.9763 -0.526,0.4506 -0.826,1.1265 -0.976,1.8024 0,0.3004 0,0.6008 0.075,0.8261 0.075,0.3004 0.225,0.5255 0.451,0.6755 0.15,0.226 0.375,0.301 0.675,0.376 0.226,0.075 0.526,0.075 0.827,0 0.675,-0.075 1.276,-0.451 1.802,-0.9764 0.451,-0.4506 0.826,-1.1265 0.901,-1.7273 0,-0.3755 0,-0.6759 -0.075,-0.9012 C 21.103,6.6687 20.953,6.4434 20.803,6.2932 v 0 0 C 20.577,6.0679 20.352,5.9928 20.052,5.9177 Z m 4.28,0.5257 v 0 c -0.676,0.0751 -1.352,0.3755 -1.802,0.8261 -0.526,0.4506 -0.976,1.0514 -1.127,1.7273 0,0.3004 -0.075,0.6008 0,0.9012 0.075,0.225 0.151,0.451 0.376,0.676 0.15,0.225 0.375,0.375 0.676,0.45 0.225,0.076 0.525,0.076 0.826,0.076 0.676,-0.076 1.352,-0.376 1.802,-0.827 0.526,-0.4501 0.976,-1.0509 1.127,-1.7268 0,-0.3004 0.075,-0.6008 0,-0.8261 -0.075,-0.3004 -0.226,-0.5257 -0.376,-0.751 v 0 0 C 25.684,6.7438 25.459,6.5936 25.158,6.5185 24.933,6.4434 24.633,6.4434 24.332,6.4434 Z m 4.656,1.6522 v 0 c -0.676,0 -1.351,0.3004 -1.877,0.6759 -0.526,0.4506 -0.976,1.0514 -1.202,1.6525 -0.075,0.3 -0.075,0.6 -0.075,0.901 0.075,0.225 0.15,0.526 0.301,0.676 0.15,0.225 0.375,0.375 0.6,0.525 0.301,0.076 0.601,0.151 0.902,0.151 0.675,0 1.351,-0.301 1.877,-0.676 0.526,-0.451 0.976,-1.052 1.202,-1.652 0.075,-0.301 0.075,-0.6012 0.075,-0.9016 C 30.716,9.2221 30.641,8.9217 30.49,8.7715 30.34,8.5462 30.115,8.396 29.89,8.2458 29.589,8.1707 29.289,8.0956 28.988,8.0956 Z m 4.506,1.2767 v 0 c -0.3,0 -0.6,0.0751 -0.901,0.1502 -0.3,0.1502 -0.601,0.3004 -0.901,0.5255 -0.225,0.225 -0.451,0.451 -0.676,0.676 -0.15,0.3 -0.3,0.526 -0.375,0.826 -0.076,0.301 -0.151,0.601 -0.076,0.826 0,0.226 0.076,0.526 0.226,0.676 0.15,0.225 0.375,0.376 0.601,0.451 0.225,0.15 0.525,0.15 0.826,0.15 0.3,0 0.6,-0.075 0.901,-0.15 0.3,-0.15 0.601,-0.301 0.826,-0.526 0.3,-0.15 0.526,-0.451 0.751,-0.676 0.15,-0.225 0.3,-0.526 0.375,-0.826 0.075,-0.3 0.151,-0.526 0.075,-0.826 0,-0.225 -0.075,-0.451 -0.225,-0.6759 C 34.696,9.7478 34.546,9.5976 34.32,9.5225 34.095,9.4474 33.795,9.3723 33.494,9.3723 Z"
             style="fill:#fefefe;fill-opacity:1;fill-rule:nonzero;stroke:none"
             transform="matrix(1.7530173,1.5967709e-6,0,-1.7524654,316.86667,396.93333)"
             clip-path="url(#clipPath372)"
             id="path383" />
        </g>
        <g
           clip-path="url(#clipPath375)"
           id="g384">
          <path
             d="m 23.206,26.119 v 0 c 0.751,0.451 3.154,2.103 3.905,4.882 1.126,4.13 -3.004,8.937 -6.609,10.664 v 0 0 c -2.929,-2.628 -5.482,-8.486 -3.304,-12.091 1.502,-2.478 4.581,-3.304 5.407,-3.53 -0.451,3.305 -3.229,25.309 0.601,0.075 z"
             style="fill:#fefefe;fill-opacity:1;fill-rule:nonzero;stroke:none"
             transform="matrix(1.7530173,1.5967709e-6,0,-1.7524654,316.86667,396.93333)"
             clip-path="url(#clipPath374)"
             id="path384" />
        </g>
        <g
           clip-path="url(#clipPath377)"
           id="g385">
          <path
             d="m 24.257,22.364 v 0 c 0.526,-0.6 2.553,-2.628 5.182,-2.703 3.83,-0.075 7.209,4.656 8.036,8.186 v 0 0 c -3.004,1.952 -8.712,3.004 -11.416,0.3 -1.877,-1.877 -1.952,-4.431 -1.952,-5.257 0.601,0.301 12.241,4.431 12.617,4.506 0.3,0 -8.862,-3.605 -12.467,-5.032 z"
             style="fill:#fefefe;fill-opacity:1;fill-rule:nonzero;stroke:none"
             transform="matrix(1.7530173,1.5967709e-6,0,-1.7524654,316.86667,396.93333)"
             clip-path="url(#clipPath376)"
             id="path385" />
        </g>
        <g
           clip-path="url(#clipPath379)"
           id="g386">
          <path
             d="m 22.38,22.515 v 0 c -0.151,0.751 -0.977,3.379 -3.155,4.656 -1.351,0.826 -3.079,0.826 -4.731,0.45 -2.253,-0.6 -4.5058,-2.027 -5.8576,-3.529 v 0 0 c 0.9012,-1.652 2.4786,-3.455 4.4306,-4.581 1.577,-0.977 3.455,-1.502 5.107,-1.052 2.403,0.676 3.68,2.854 4.055,3.53 -3.004,0.375 -19.6005,2.854 0.151,0.526 z"
             style="fill:#fefefe;fill-opacity:1;fill-rule:nonzero;stroke:none"
             transform="matrix(1.7530173,1.5967709e-6,0,-1.7524654,316.86667,396.93333)"
             clip-path="url(#clipPath378)"
             id="path386" />
        </g>
        <g
           clip-path="url(#clipPath381)"
           id="g387">
          <path
             d="m 23.581,22.139 v 0 c 0.225,0.075 0.451,0.15 0.676,0.225 0,0.076 -0.15,0.526 -0.15,0.526 -0.225,-0.075 -0.376,-0.15 -0.526,-0.225 l -0.225,1.802 c -0.075,0.901 0,0.901 -0.15,1.652 0.3,0 -0.526,-0.075 -0.601,-0.075 0.15,-0.751 0.225,-1.351 0.225,-1.652 v 0 -0.075 l 0.225,-1.877 c -0.225,0 -0.375,0.075 -0.675,0.075 0,0 -0.151,-0.451 -0.151,-0.526 0.301,0 0.751,0 0.977,-0.075 0.375,-2.704 -0.226,-5.633 -1.803,-7.961 0.075,-0.075 0.376,-0.15 0.376,-0.15 1.652,2.403 2.253,5.482 1.802,8.336 z"
             style="fill:#fefefe;fill-opacity:1;fill-rule:nonzero;stroke:none"
             transform="matrix(1.7530173,1.5967709e-6,0,-1.7524654,316.86667,396.93333)"
             clip-path="url(#clipPath380)"
             id="path387" />
        </g>
      </g>
    </g>
  </g>
</svg>
