<?xml version="1.0" encoding="UTF-8" standalone="no"?>
<!-- Created with Inkscape (http://www.inkscape.org/) -->

<svg
   version="1.1"
   id="svg1"
   width="79.469543"
   height="79.465576"
   viewBox="0 0 79.469544 79.465579"
   xmlns="http://www.w3.org/2000/svg"
   xmlns:svg="http://www.w3.org/2000/svg">
  <defs
     id="defs1">
    <clipPath
       clipPathUnits="userSpaceOnUse"
       id="clipPath460">
      <path
         d="M 0,45.345 V -0.61591 H 45.961 V 45.345"
         clip-rule="evenodd"
         id="path460" />
    </clipPath>
    <clipPath
       clipPathUnits="userSpaceOnUse"
       id="clipPath461">
      <path
         d="M 0,0 H 45.333 V 45.345 H 0 Z"
         transform="matrix(1.7530173,0,-3.9800853e-7,-1.7524654,222.4,747.73333)"
         id="path461" />
    </clipPath>
    <clipPath
       clipPathUnits="userSpaceOnUse"
       id="clipPath462">
      <path
         d="M 0,45.345 V -0.61591 H 45.961 V 45.345"
         id="path462" />
    </clipPath>
    <clipPath
       clipPathUnits="userSpaceOnUse"
       id="clipPath463">
      <path
         d="M 0,0 H 45.333 V 45.345 H 0 Z"
         transform="matrix(1.7530173,0,-3.9800853e-7,-1.7524654,222.4,747.73333)"
         id="path463" />
    </clipPath>
    <clipPath
       clipPathUnits="userSpaceOnUse"
       id="clipPath464">
      <path
         d="M 0,45.345 V -0.61591 H 45.961 V 45.345"
         id="path464" />
    </clipPath>
    <clipPath
       clipPathUnits="userSpaceOnUse"
       id="clipPath465">
      <path
         d="M 0,0 H 45.333 V 45.345 H 0 Z"
         transform="matrix(1.7530173,0,-3.9800853e-7,-1.7524654,222.4,747.73333)"
         id="path465" />
    </clipPath>
    <clipPath
       clipPathUnits="userSpaceOnUse"
       id="clipPath466">
      <path
         d="M 0,45.345 V -0.61591 H 45.961 V 45.345"
         id="path466" />
    </clipPath>
    <clipPath
       clipPathUnits="userSpaceOnUse"
       id="clipPath467">
      <path
         d="M 0,0 H 45.333 V 45.345 H 0 Z"
         transform="matrix(1.7530173,0,-3.9800853e-7,-1.7524654,222.4,747.73333)"
         id="path467" />
    </clipPath>
    <clipPath
       clipPathUnits="userSpaceOnUse"
       id="clipPath468">
      <path
         d="M 0,45.345 V -0.61591 H 45.961 V 45.345"
         id="path468" />
    </clipPath>
    <clipPath
       clipPathUnits="userSpaceOnUse"
       id="clipPath469">
      <path
         d="M 0,0 H 45.333 V 45.345 H 0 Z"
         transform="matrix(1.7530173,0,-3.9800853e-7,-1.7524654,222.4,747.73333)"
         id="path469" />
    </clipPath>
    <clipPath
       clipPathUnits="userSpaceOnUse"
       id="clipPath475">
      <path
         d="M 0,1.2207e-4 H 595.2 V 841.92012 H 0 Z"
         transform="matrix(1.3333333,0,0,-1.3333333,0,1122.56)"
         clip-rule="evenodd"
         id="path475" />
    </clipPath>
  </defs>
  <g
     id="g1"
     transform="translate(-222.39999,-668.26774)">
    <g
       id="g460">
      <g
         id="g475"
         clip-path="url(#clipPath475)">
        <g
           clip-path="url(#clipPath461)"
           id="g470">
          <path
             d="m 22.68,-0.015125 v 0 C 10.138,-0.015125 0,10.198 0,22.74 0,35.357 10.138,45.42 22.68,45.42 35.297,45.42 45.435,35.357 45.435,22.74 45.435,10.198 35.297,-0.015125 22.68,-0.015125 Z"
             style="fill:#77144d;fill-opacity:1;fill-rule:nonzero;stroke:none"
             transform="matrix(1.7530173,0,-3.9800853e-7,-1.7524654,222.4,747.73333)"
             clip-path="url(#clipPath460)"
             id="path470" />
        </g>
        <g
           clip-path="url(#clipPath463)"
           id="g471">
          <path
             d="m 19.301,31.602 v 0 h -3.004 v -1.878 h 3.304 v -1.502 h -5.107 v 8.111 h 4.957 v -1.502 h -3.154 v -1.727 h 3.004 z"
             style="fill:#fefefe;fill-opacity:1;fill-rule:nonzero;stroke:none"
             transform="matrix(1.7530173,0,-3.9800853e-7,-1.7524654,222.4,747.73333)"
             clip-path="url(#clipPath462)"
             id="path471" />
        </g>
        <g
           clip-path="url(#clipPath465)"
           id="g472">
          <path
             d="m 23.581,30.776 v 0 h -3.154 v 1.201 h 3.154 z"
             style="fill:#fefefe;fill-opacity:1;fill-rule:nonzero;stroke:none"
             transform="matrix(1.7530173,0,-3.9800853e-7,-1.7524654,222.4,747.73333)"
             clip-path="url(#clipPath464)"
             id="path472" />
        </g>
        <g
           clip-path="url(#clipPath467)"
           id="g473">
          <path
             d="m 28.838,28.222 v 0 l -0.751,1.427 c -0.3,0.601 -0.526,0.976 -0.751,1.502 v 0 c -0.15,-0.526 -0.375,-0.901 -0.601,-1.502 l -0.676,-1.427 h -2.102 l 2.328,4.056 -2.253,4.055 h 2.103 l 0.675,-1.502 c 0.301,-0.526 0.451,-0.901 0.676,-1.352 v 0 c 0.151,0.526 0.376,0.901 0.526,1.352 l 0.676,1.502 h 2.103 l -2.253,-3.98 2.403,-4.131 z"
             style="fill:#fefefe;fill-opacity:1;fill-rule:nonzero;stroke:none"
             transform="matrix(1.7530173,0,-3.9800853e-7,-1.7524654,222.4,747.73333)"
             clip-path="url(#clipPath466)"
             id="path473" />
        </g>
        <g
           clip-path="url(#clipPath469)"
           id="g474">
          <path
             d="m 36.123,13.277 v 0 c -0.15,0.376 -0.526,0.601 -0.901,0.601 -0.376,0 -0.676,-0.15 -0.827,-0.45 -0.075,-0.075 -0.075,-0.075 -0.15,-0.151 0,-0.15 0,-0.225 0,-0.375 0,-0.526 0.451,-0.976 0.977,-0.976 0.375,0 0.751,0.225 0.901,0.6 0.075,0.151 0.075,0.226 0.075,0.376 0,0.15 0,0.3 -0.075,0.375 z m -15.02,0.526 v 0 4.957 h -1.051 v -4.431 l -3.831,-2.178 0.526,-0.901 z m 3.605,5.407 v 0 l 0.45,-0.901 4.056,2.403 -0.451,0.826 z M 10.214,18.985 v 0 c 0.6,0 0.976,0.451 0.976,0.976 0,0.601 -0.376,1.052 -0.976,1.052 0,0 0,0 -0.076,0 -0.3,-0.075 -0.5253,-0.226 -0.7506,-0.451 0,0 0,-0.075 0,-0.075 -0.0751,-0.15 -0.1502,-0.3 -0.1502,-0.526 0,-0.15 0.0751,-0.3 0.1502,-0.45 0.1502,-0.301 0.4506,-0.526 0.8266,-0.526 z m 1.727,1.051 v 0 l 4.581,2.554 5.332,-3.079 v -5.332 c 0.3,0.15 0.601,0.225 0.901,0.225 0.3,0 0.601,-0.075 0.901,-0.225 v 5.332 l 5.332,3.079 5.407,-3.079 v -5.107 c 0.226,0.15 0.526,0.225 0.827,0.225 0.3,0 0.6,-0.075 0.901,-0.225 v 6.158 l -6.609,3.755 v 1.502 h -1.051 v -1.502 l -5.708,-3.304 -5.783,3.379 v 1.427 H 15.996 V 24.317 L 11.04,21.538 c 0.6,-0.3 0.901,-0.901 0.901,-1.502 z m 21.628,-6.233 v 0 4.957 h -0.976 v -4.431 l -3.83,-2.178 0.451,-0.901 z M 12.166,19.21 v 0 l 0.526,-0.901 4.055,2.403 -0.526,0.826 z m 10.589,-5.557 v 0 c -0.601,0 -0.976,-0.451 -0.976,-0.976 0,-0.526 0.375,-0.902 0.826,-0.977 0.075,0 0.075,0 0.15,0 0,0 0.075,0 0.15,0 0.451,0.075 0.826,0.526 0.826,0.977 0,0.525 -0.45,0.976 -0.976,0.976 z m 10.739,-0.901 v 0 l -4.506,-2.554 -4.506,2.629 c 0,-0.075 0,-0.075 0,-0.15 0,-0.601 -0.3,-1.127 -0.826,-1.427 L 28.463,8.4711 V 7.0442 h 1.051 v 1.4269 l 4.957,2.8539 c -0.526,0.3 -0.977,0.826 -0.977,1.427 z m -22.379,0.525 v 0 c 0,0 0,0.076 0,0.076 -0.15,0.375 -0.526,0.6 -0.901,0.6 -0.376,0 -0.6764,-0.15 -0.8266,-0.45 -0.1502,-0.15 -0.1502,-0.301 -0.1502,-0.526 0,-0.225 0,-0.375 0.1502,-0.526 0.1502,-0.3 0.4506,-0.45 0.8266,-0.45 0.525,0 0.976,0.45 0.976,0.976 0,0.075 0,0.225 -0.075,0.3 z m -1.7276,5.182 v 0 -3.98 c 0.2253,0.15 0.5257,0.225 0.8266,0.225 0.3,0 0.675,-0.075 0.901,-0.3 v 4.13 c -0.226,-0.15 -0.526,-0.3 -0.901,-0.3 -0.3009,0 -0.6013,0.075 -0.8266,0.225 z M 21.028,12.677 v 0 c 0,0.075 0,0.075 0,0.15 l -4.506,-2.629 -4.581,2.629 C 11.866,12.226 11.49,11.625 10.889,11.4 L 15.996,8.4711 V 7.0442 h 0.976 v 1.4269 l 4.807,2.7789 c -0.451,0.3 -0.751,0.826 -0.751,1.427 z"
             style="fill:#fefefe;fill-opacity:1;fill-rule:nonzero;stroke:none"
             transform="matrix(1.7530173,0,-3.9800853e-7,-1.7524654,222.4,747.73333)"
             clip-path="url(#clipPath468)"
             id="path474" />
        </g>
      </g>
    </g>
  </g>
</svg>
